<?xml version="1.0" encoding="UTF-8"?>
<svg version="1.1" xmlns="http://www.w3.org/2000/svg" width="1600" height="1600">
<path d="M0 0 C528 0 1056 0 1600 0 C1600 528 1600 1056 1600 1600 C1072 1600 544 1600 0 1600 C0 1072 0 544 0 0 Z " fill="#F5F3EF" transform="translate(0,0)"/>
<path d="M0 0 C6.46437027 5.48364199 11.20557019 11.4330735 15 19 C15.48726562 19.93070312 15.97453125 20.86140625 16.4765625 21.8203125 C21.42168069 32.62221872 21.9262004 46.05616597 18.875 57.5625 C18.03125 59.78515625 18.03125 59.78515625 17 62 C16.5978125 62.88558594 16.195625 63.77117187 15.78125 64.68359375 C8.10354609 80.06032853 -4.1999465 88.91433697 -19.17333984 96.36132812 C-27.430526 100.5193092 -33.69202455 105.0251974 -37 114 C-38.74413462 122.74690068 -35.82502477 129.76246284 -31 137 C-24.84973617 144.73442269 -16.98588926 149.93556888 -8.875 155.37109375 C7.54050348 166.41663199 22.57127178 181.14045354 33 198 C33.38591309 198.62197266 33.77182617 199.24394531 34.16943359 199.88476562 C42.15631726 212.97154907 48.59833055 227.00025758 52 242 C52.25652344 241.35417969 52.51304687 240.70835937 52.77734375 240.04296875 C65.37614521 209.03379747 82.82941107 179.42377603 110 159 C110.52287598 158.60216309 111.04575195 158.20432617 111.58447266 157.79443359 C128.25001876 145.1833339 145.73575373 136.33510664 166 131 C167.60294922 130.56494141 167.60294922 130.56494141 169.23828125 130.12109375 C189.89740125 124.68724643 213.26206051 125.12048483 234 130 C235.18851563 130.2784375 236.37703125 130.556875 237.6015625 130.84375 C277.13775497 141.19634216 311.35668744 168.0281066 332.4140625 202.91796875 C350.14203366 233.29051404 359.69068573 266.28214114 359.5 301.5 C359.49856995 302.36274536 359.49713989 303.22549072 359.4956665 304.11437988 C359.43286315 319.53278183 357.84552198 334.01880646 354 349 C353.66307129 350.35810791 353.66307129 350.35810791 353.31933594 351.74365234 C343.6689918 389.76207508 320.98811478 425.0822225 289 448 C288.41669922 448.42619629 287.83339844 448.85239258 287.23242188 449.29150391 C256.46377338 471.60806207 216.7561229 481.81961369 179.08862305 475.87280273 C150.77030944 470.67792721 126.13497854 458.24813918 104 440 C103.20335937 439.34773438 102.40671875 438.69546875 101.5859375 438.0234375 C96.89925348 434.06056569 92.9359786 429.69725841 89 425 C87.87464844 423.72382812 87.87464844 423.72382812 86.7265625 422.421875 C67.6133907 400.35430125 47 365.05281587 47 335 C46.34 335 45.68 335 45 335 C44.67 336.19625 44.34 337.3925 44 338.625 C38.01929242 356.40021928 24.84635089 371.75378059 12 385 C11.24332031 385.79664063 10.48664062 386.59328125 9.70703125 387.4140625 C5.75686785 391.49411522 1.72657966 394.84894689 -3 398 C-1.90945313 398.45439453 -1.90945313 398.45439453 -0.796875 398.91796875 C1.3333047 399.80554362 3.46210172 400.69644095 5.58984375 401.58984375 C7.6968886 402.46114179 9.81271441 403.31191828 11.94140625 404.12890625 C25.01906927 409.23542228 35.88195268 416.29751534 46 426 C47.30933787 427.06639432 48.62173207 428.12904959 49.9375 429.1875 C71.45385693 448.10630881 84.16435613 478.4698288 86.75 506.5625 C86.85750667 508.70725813 86.93939025 510.85340465 87 513 C87.0515625 514.30195312 87.103125 515.60390625 87.15625 516.9453125 C88.05157726 548.83530918 75.92498997 580.67431858 54.28515625 604.11328125 C47.47089639 611.23068664 40.36337589 617.73625803 32 623 C31.44860352 623.35755371 30.89720703 623.71510742 30.32910156 624.08349609 C4.46123666 640.65840462 -26.67783125 644.83671514 -56.51757812 638.59521484 C-74.36771386 634.31525508 -89.70171858 626.47163704 -104 615 C-104.71800781 614.44828125 -105.43601562 613.8965625 -106.17578125 613.328125 C-116.46547365 604.99739208 -123.12108272 594.13136188 -128 582 C-128.3609375 581.195625 -128.721875 580.39125 -129.09375 579.5625 C-133.82524486 566.18379039 -131.77454906 550.61629327 -126 538 C-118.84898305 525.09977836 -107.87723633 515.65013223 -94.0625 510.625 C-79.14393067 506.46045238 -63.64386126 508.02551657 -50.1328125 515.609375 C-36.36807538 524.73008227 -27.83281225 537.2523449 -24.25 553.375 C-23.07368261 570.43160213 -25.58022408 585.60152912 -37.04785156 598.90893555 C-37.52706055 599.45461182 -38.00626953 600.00028809 -38.5 600.5625 C-47.58235475 610.81560276 -47.58235475 610.81560276 -50.1875 623.875 C-49.60036822 627.45395112 -48.98930834 629.01540857 -46.875 632.0625 C-36.58511792 638.99698575 -21.19944618 636.80395298 -9.61865234 634.76708984 C9.23018354 630.95882292 26.54117515 622.68355494 41 610 C41.78890625 609.36964844 42.5778125 608.73929688 43.390625 608.08984375 C63.76583952 591.31235067 74.15074217 566.0098137 80 541 C80.24878906 539.9790625 80.49757813 538.958125 80.75390625 537.90625 C85.63320012 515.24994841 80.69143352 489.63936422 68.4543457 470.1340332 C57.01415538 452.59875709 41.2272014 439.96443118 21 434 C20.05382812 433.70222656 19.10765625 433.40445312 18.1328125 433.09765625 C-1.33336312 427.72340675 -22.17178117 430.85375232 -40 440 C-48.57078653 444.87732544 -56.50892631 450.59166973 -64 457 C-64.71542969 457.60457031 -65.43085937 458.20914062 -66.16796875 458.83203125 C-72.25940257 464.1476198 -77.96145482 469.85945758 -83.6875 475.5625 C-84.49566162 476.36598877 -85.30382324 477.16947754 -86.13647461 477.99731445 C-90.43061135 482.30292694 -94.55315412 486.6908841 -98.51879883 491.30053711 C-100.25868296 493.29680107 -102.09534848 495.16102612 -104 497 C-106.49709965 499.45912095 -108.86058142 501.95093786 -111.125 504.625 C-119.80620295 514.67378971 -129.4312082 523.96361953 -140 532 C-140.7719873 532.60255615 -140.7719873 532.60255615 -141.55957031 533.21728516 C-162.41555367 549.42269551 -185.54399889 557.09166039 -212 555 C-217.50210812 554.21153591 -222.72740373 552.72960309 -228 551 C-228.91910156 550.69964844 -229.83820313 550.39929688 -230.78515625 550.08984375 C-253.53819615 541.76028398 -270.55361775 523.99374032 -280.8125 502.4375 C-289.29545293 482.48793483 -291.92568534 460.24201801 -287 439 C-287.90878906 439.76183594 -288.81757812 440.52367187 -289.75390625 441.30859375 C-321.69047179 467.70347836 -358.72725129 479.06476265 -400 477 C-419.98289999 475.10113049 -438.48032325 468.56484799 -456 459 C-457.06992187 458.4225 -458.13984375 457.845 -459.2421875 457.25 C-470.58459656 450.8864666 -480.57558537 442.92440549 -490 434 C-490.82242188 433.23042969 -491.64484375 432.46085937 -492.4921875 431.66796875 C-525.81129322 399.54253815 -543.06157604 351.48042091 -544.203125 305.84375 C-544.42954476 287.25120446 -542.51252657 269.85057968 -537.52832031 251.94335938 C-537.00161346 250.0059349 -536.52554371 248.06103989 -536.0546875 246.109375 C-525.83232928 205.73229163 -496.38449954 168.33637594 -460.78125 147.078125 C-448.83230078 140.36833044 -436.34626249 134.27986582 -423 131 C-421.31970703 130.57460938 -421.31970703 130.57460938 -419.60546875 130.140625 C-384.1680809 121.55465217 -346.71025196 127.32253476 -315.30224609 145.70922852 C-307.22997472 150.69224658 -299.94375151 156.55594875 -293 163 C-292.43039551 163.52577637 -291.86079102 164.05155273 -291.27392578 164.59326172 C-273.69744864 181.00605486 -259.21220706 201.26620728 -251 224 C-251 224.66 -251 225.32 -251 226 C-250.34 226 -249.68 226 -249 226 C-248.90976562 225.33226562 -248.81953125 224.66453125 -248.7265625 223.9765625 C-247.79666019 220.16696271 -246.14682614 216.8472842 -244.375 213.375 C-244.01672119 212.66786865 -243.65844238 211.9607373 -243.28930664 211.23217773 C-236.31583945 197.67171725 -227.38910839 186.10795939 -217 175 C-216.22785156 174.17371094 -215.45570313 173.34742188 -214.66015625 172.49609375 C-204.14379568 161.6047576 -192.18903481 153.30107284 -179 146 C-178.36191406 145.64663574 -177.72382812 145.29327148 -177.06640625 144.92919922 C-162.90268837 137.20968799 -147.8469782 132.03281839 -132 129 C-131.03449219 128.79503906 -130.06898438 128.59007812 -129.07421875 128.37890625 C-116.21768305 126.05736493 -103.00566038 126.75774776 -90 127 C-88.86135498 127.01305176 -88.86135498 127.01305176 -87.69970703 127.02636719 C-70.33046981 127.28755872 -53.21448716 133.23880859 -37 139 C-39.49128945 136.49529248 -41.99255548 134.00713576 -44.54296875 131.5625 C-51.44739138 124.87224705 -57.43688308 117.83945586 -63 110 C-63.57596924 109.19054932 -63.57596924 109.19054932 -64.16357422 108.36474609 C-79.52760966 86.43577952 -90.56658649 59.69618447 -86.484375 32.57421875 C-83.29298534 17.9717556 -75.16768123 6.17808051 -62.86328125 -2.24609375 C-43.06757634 -14.37197575 -18.82841139 -14.45811695 0 0 Z " fill="#222222" transform="translate(892,422)"/>
<path d="M0 0 C-0.51152368 3.78527521 -1.20845842 5.44108688 -4 8 C-4.33 8.99 -4.66 9.98 -5 11 C-5.75410156 11.59167969 -6.50820313 12.18335938 -7.28515625 12.79296875 C-10.34688037 15.28199627 -12.35515085 18.01394826 -14.4375 21.3125 C-15.01890747 22.22902344 -15.01890747 22.22902344 -15.61206055 23.1640625 C-27.8060118 43.03456261 -31.45002997 66.89592259 -33.88037109 89.70898438 C-34.12495625 91.99959027 -34.38012681 94.28883619 -34.63671875 96.578125 C-36.48862416 113.35510868 -37.20566211 130.00496416 -37.1875 146.875 C-37.18722809 147.83032623 -37.18695618 148.78565247 -37.18667603 149.76992798 C-38.15151033 223.79258202 -38.15151033 223.79258202 -7.8203125 288.6953125 C-5.51674057 291.61185207 -4.83109135 293.52204928 -5.25 297.1875 C-5.4975 297.785625 -5.745 298.38375 -6 299 C-13.60146689 301.5338223 -21.20582601 299.81856132 -28.625 297.4375 C-29.48891357 297.1679248 -30.35282715 296.89834961 -31.24291992 296.62060547 C-39.43962745 293.98974989 -47.2641802 290.76412697 -55 287 C-55.62712891 286.69868164 -56.25425781 286.39736328 -56.90039062 286.08691406 C-74.45758555 277.54337688 -89.12741704 265.40295286 -102.5625 251.3125 C-104.69612724 249.28828954 -106.30823065 248.09664677 -109 247 C-108.67 246.01 -108.34 245.02 -108 244 C-108.680625 243.38125 -109.36125 242.7625 -110.0625 242.125 C-123.98842558 228.04304164 -132.40808265 207.58758567 -137.75 188.875 C-137.94883789 188.1835791 -138.14767578 187.4921582 -138.35253906 186.77978516 C-143.00919499 169.60287509 -142 154.17420048 -142 136 C-167.74 136 -193.48 136 -220 136 C-220.66 134.68 -221.32 133.36 -222 132 C-220.02 132 -218.04 132 -216 132 C-216.14824219 131.25105469 -216.29648437 130.50210938 -216.44921875 129.73046875 C-217.04657642 125.68453559 -217.32908985 121.67972084 -217.5949707 117.60083008 C-220.95308417 62.05040335 -220.95308417 62.05040335 -246.5 14.3125 C-249.92064315 10.72082469 -249.92064315 10.72082469 -250.28125 7.4453125 C-250.02980626 5.20327248 -249.652658 3.15683073 -249 1 C-227.07804801 1.78998025 -205.34542019 11.93496469 -188 25 C-187.06414063 25.69480469 -186.12828125 26.38960937 -185.1640625 27.10546875 C-162.53562351 44.79015787 -143.80396781 68.85974764 -134 96 C-134 96.66 -134 97.32 -134 98 C-133.34 98 -132.68 98 -132 98 C-131.90976562 97.33226562 -131.81953125 96.66453125 -131.7265625 95.9765625 C-130.79666019 92.16696271 -129.14682614 88.8472842 -127.375 85.375 C-127.01672119 84.66786865 -126.65844238 83.9607373 -126.28930664 83.23217773 C-119.31583945 69.67171725 -110.38910839 58.10795939 -100 47 C-99.22785156 46.17371094 -98.45570313 45.34742188 -97.66015625 44.49609375 C-87.14379568 33.6047576 -75.18903481 25.30107284 -62 18 C-61.36191406 17.64663574 -60.72382812 17.29327148 -60.06640625 16.92919922 C-42.01291473 7.08968309 -20.78523011 -0.53295462 0 0 Z " fill="#222222" transform="translate(775,550)"/>
<path d="M0 0 C3.02243375 2.04677093 5.50636387 4.34118712 8 7 C8.87398437 7.91845703 8.87398437 7.91845703 9.765625 8.85546875 C19.59852053 20.30503404 24.42975718 35.59163671 28 50 C28.1748291 50.68626465 28.3496582 51.3725293 28.52978516 52.07958984 C43.22898339 111.00036852 42.07969795 179.97148234 35 240 C34.9104303 240.76534058 34.8208606 241.53068115 34.72857666 242.31921387 C32.66511567 259.74269994 30.53059511 277.28205687 25 294 C24.77199707 294.70060547 24.54399414 295.40121094 24.30908203 296.12304688 C19.38723369 310.94601908 12.26248283 327.5606706 -2.3125 335.0625 C-10.04721882 338.56242913 -17.86773106 339.38442298 -26 336.5625 C-38.81394815 330.80929879 -46.3385155 318.79299895 -51.74609375 306.3359375 C-56.28605515 294.25766012 -59.70427379 281.68956355 -62 269 C-62.15178711 268.19723633 -62.30357422 267.39447266 -62.45996094 266.56738281 C-64.88882084 253.55191329 -66.50959454 240.47782336 -67.60546875 227.2890625 C-67.6708956 226.50265444 -67.73632244 225.71624638 -67.80373192 224.90600777 C-69.36034479 205.6607715 -69.4196333 186.44856873 -69.3225708 167.15228271 C-69.30907273 163.51361274 -69.31442768 159.8750635 -69.3194294 156.23637962 C-69.36998199 107.70714565 -69.36998199 107.70714565 -65.46806335 85.70217896 C-64.871838 82.26010731 -64.41711622 78.80619514 -63.96191406 75.34326172 C-61.66000934 58.05228755 -57.58898748 42.16888055 -51 26 C-50.53851562 24.86304688 -50.07703125 23.72609375 -49.6015625 22.5546875 C-44.71794562 11.74298077 -36.29629362 1.40667296 -25 -3 C-16.33618835 -5.61289558 -7.95112729 -4.0352568 0 0 Z " fill="#F5F3EF" transform="translate(1109,557)"/>
<path d="M0 0 C43.00026836 17.38205761 73.47376812 51.55520549 91.87255859 93.57617188 C101.35625303 116.20771541 105.36410944 140.71531921 105.23193359 165.12695312 C105.23050354 165.98969849 105.22907349 166.85244385 105.2276001 167.74133301 C105.16479674 183.15973496 103.57745558 197.64575959 99.73193359 212.62695312 C99.50731445 213.5323584 99.28269531 214.43776367 99.05126953 215.37060547 C89.40092539 253.3890282 66.72004838 288.70917562 34.73193359 311.62695312 C33.85698242 312.26624756 33.85698242 312.26624756 32.96435547 312.91845703 C12.34211221 327.87580855 -16.24082811 341.30612979 -42.26806641 339.62695312 C-41.71098308 336.00983461 -40.53945624 334.68549106 -37.70556641 332.43945312 C-17.03405123 314.8999857 -10.27003532 287.48435801 -6.26806641 261.62695312 C-6.1344873 260.79164063 -6.0009082 259.95632813 -5.86328125 259.09570312 C-4.79905429 252.29304891 -3.99988298 245.47260739 -3.26806641 238.62695312 C-3.12981445 237.38042969 -2.9915625 236.13390625 -2.84912109 234.84960938 C1.94274527 190.56276872 1.93781106 143.97153079 -2.26806641 99.62695312 C-2.33123047 98.95970215 -2.39439453 98.29245117 -2.45947266 97.60498047 C-4.28369945 78.63391608 -7.27874452 60.0475161 -12.26806641 41.62695312 C-12.47544434 40.86092773 -12.68282227 40.09490234 -12.89648438 39.30566406 C-17.03978224 24.519507 -24.46457414 7.08113007 -38.33056641 -0.99804688 C-39.29994141 -1.45179688 -40.26931641 -1.90554688 -41.26806641 -2.37304688 C-41.26806641 -3.36304688 -41.26806641 -4.35304688 -41.26806641 -5.37304688 C-31.75099613 -13.42876279 -10.04315646 -3.92664764 0 0 Z " fill="#222222" transform="translate(1146.26806640625,558.373046875)"/>
<path d="M0 0 C59.73 0 119.46 0 181 0 C181.33 10.23 181.66 20.46 182 31 C185.50660439 57.47486314 195.34250004 84.85487908 212.8203125 105.43359375 C214 107 214 107 214 109 C212.83984375 109.47308594 211.6796875 109.94617188 210.484375 110.43359375 C199.69572294 114.95450864 190.07271861 119.7327815 181.8046875 128.265625 C180 130 180 130 178 130 C177.73703125 130.58136719 177.4740625 131.16273438 177.203125 131.76171875 C175.94085206 134.11003822 174.53551439 135.83797845 172.75 137.8125 C170.09132565 140.7528575 170.09132565 140.7528575 167.59375 143.828125 C158.54713299 155.50457254 141.87130873 161.60444392 127.77734375 164.53125 C103.43942943 167.55146688 82.05937096 161.99175085 62 148 C58.47584866 145.17333695 55.19880078 142.18716878 52 139 C51.18273437 138.18917969 50.36546875 137.37835937 49.5234375 136.54296875 C41.49000303 128.44735599 34.88161662 120.40999084 29.01416016 110.66845703 C28.1019561 109.16773423 27.15276922 107.6896409 26.19921875 106.21484375 C6.73731956 75.12054505 0 36.07505304 0 0 Z " fill="#F5F3EF" transform="translate(452,686)"/>
<path d="M0 0 C14.94326364 8.49714991 22.28130716 25.13171007 27 41 C36.07226945 74.23936011 37.37530788 108.41141288 37.31567383 142.66796875 C37.31103386 145.55614766 37.31802911 148.44390613 37.33618164 151.33203125 C37.54733933 185.30237847 35.97502785 220.52599563 24.69873047 252.85644531 C23.88418007 255.24109856 23.88418007 255.24109856 23.16015625 258.7421875 C21.72314545 263.64764607 20.10622247 266.73919362 15.61083984 269.43017578 C10.41111482 272.01711696 5.06236672 274.15696673 -0.34375 276.26953125 C-7.50907458 279.08787846 -14.02366067 282.74595162 -20.54150391 286.82470703 C-24.46957179 289.15360436 -26.14790444 290.11635391 -30.8046875 289.48046875 C-44.83846919 282.97826428 -52.21881262 266.85479961 -57.29931641 253.06347656 C-64.92203743 231.20484851 -67.22342615 207.94602855 -69 185 C-69.07202637 184.09024414 -69.14405273 183.18048828 -69.21826172 182.24316406 C-69.69315775 175.83143782 -69.88758807 169.42752227 -70 163 C-70.0133136 162.26652344 -70.0266272 161.53304687 -70.04034424 160.77734375 C-70.61585559 127.67586285 -69.75893712 94.68492057 -64 62 C-63.86513184 61.20964355 -63.73026367 60.41928711 -63.59130859 59.60498047 C-60.13184961 39.81783271 -53.79239154 14.55253409 -36.546875 2.25 C-24.6925691 -5.13232223 -12.61835 -6.65456779 0 0 Z " fill="#F5F3EF" transform="translate(807,557)"/>
<path d="M0 0 C19.36699757 12.79707214 25.81964178 40.41431287 30.2109375 61.875 C31.51407926 69.32152435 32.52731422 76.81000514 33.50363159 84.30560303 C33.76206475 86.28777158 34.02652403 88.26915165 34.29125977 90.25048828 C35.74012345 101.82262826 36.11342423 112.97970803 36.6484375 124.75 C1.3384375 124.75 -33.9715625 124.75 -70.3515625 124.75 C-70.3515625 108.57411289 -70.3515625 108.57411289 -69.46875 101.07421875 C-69.37422043 100.22897141 -69.27969086 99.38372406 -69.18229675 98.51286316 C-68.8753363 95.81956212 -68.55326648 93.12847353 -68.2265625 90.4375 C-68.11585419 89.51302063 -68.00514587 88.58854126 -67.89108276 87.63604736 C-64.35627663 58.48011727 -58.85920044 20.51619044 -34.2421875 1 C-23.26094609 -6.2603249 -11.39162769 -6.45824562 0 0 Z " fill="#F4F2EE" transform="translate(522.3515625,557.25)"/>
<path d="M0 0 C6.46437027 5.48364199 11.20557019 11.4330735 15 19 C15.48726562 19.93070312 15.97453125 20.86140625 16.4765625 21.8203125 C21.42168069 32.62221872 21.9262004 46.05616597 18.875 57.5625 C18.03125 59.78515625 18.03125 59.78515625 17 62 C16.5978125 62.88558594 16.195625 63.77117187 15.78125 64.68359375 C8.10354609 80.06032853 -4.1999465 88.91433697 -19.17333984 96.36132812 C-27.430526 100.5193092 -33.69202455 105.0251974 -37 114 C-38.77695111 122.91147664 -35.39786349 129.4103353 -31 137 C-30.67 137.66 -30.34 138.32 -30 139 C-30.66 139 -31.32 139 -32 139 C-32 139.66 -32 140.32 -32 141 C-33.65 141.33 -35.3 141.66 -37 142 C-37.061875 141.443125 -37.12375 140.88625 -37.1875 140.3125 C-38.61335619 136.25429393 -42.26146823 133.70501857 -45.32421875 130.78125 C-67.51979801 109.35609581 -86.40088282 78.04232027 -87.55566406 46.59399414 C-87.60490246 30.16067867 -82.44653287 15.91453422 -71 4 C-50.6290682 -13.65068597 -22.05442934 -16.93533841 0 0 Z " fill="#222322" transform="translate(892,422)"/>
<path d="M0 0 C12.29489197 9.46074606 19.92427157 20.81547206 23.3125 36.0625 C24.48881739 53.11910213 21.98227592 68.28902912 10.51464844 81.59643555 C10.03543945 82.14211182 9.55623047 82.68778809 9.0625 83.25 C-0.05031506 93.49527244 -0.05031506 93.49527244 -2.5 106.5625 C-1.87523992 110.5552849 -0.76480479 113.34832356 1.5625 116.6875 C1.5625 118.35416667 1.5625 120.02083333 1.5625 121.6875 C-19.95819081 121.96239934 -40.11341345 110.78445833 -56.4375 97.6875 C-57.15550781 97.13578125 -57.87351562 96.5840625 -58.61328125 96.015625 C-68.90297365 87.68489208 -75.55858272 76.81886188 -80.4375 64.6875 C-80.7984375 63.883125 -81.159375 63.07875 -81.53125 62.25 C-86.26274486 48.87129039 -84.21204906 33.30379327 -78.4375 20.6875 C-71.28648305 7.78727836 -60.31473633 -1.66236777 -46.5 -6.6875 C-30.62280746 -11.11964915 -13.81611929 -9.15475382 0 0 Z " fill="#222222" transform="translate(844.4375,939.3125)"/>
<path d="M0 0 C2.52423479 1.06644028 3.56447204 2.33773426 5.265625 4.4765625 C8.85974114 8.75310575 12.68894653 12.32665584 17.015625 15.8515625 C17.96308594 16.625 18.91054688 17.3984375 19.88671875 18.1953125 C43.37660097 36.99602423 70.75685771 47.67769417 100.015625 53.8515625 C97.6759194 56.45494391 95.28580573 57.92503725 92.18359375 59.5234375 C91.22727051 60.01956543 90.27094727 60.51569336 89.28564453 61.02685547 C88.26841309 61.54650879 87.25118164 62.06616211 86.203125 62.6015625 C85.1601123 63.13797363 84.11709961 63.67438477 83.04248047 64.22705078 C80.96724853 65.29283222 78.89077696 66.35620386 76.81298828 67.41699219 C74.52610907 68.58977123 72.25016789 69.7788768 69.98046875 70.984375 C51.66740348 80.53715525 30.11324084 87.74149626 9.32421875 83.01171875 C-2.81313495 78.75576356 -12.74681831 70.38170908 -18.48828125 58.82421875 C-23.78510508 46.61586981 -24.99646714 34.26656259 -20.2421875 21.6328125 C-17.28923937 15.10331228 -8.3376432 -0.62368197 0 0 Z " fill="#F4F2EF" transform="translate(668.984375,798.1484375)"/>
<path d="M0 0 C4.08602623 2.53235757 5.03387731 6.2292131 6.671875 10.6171875 C7.18729858 11.95728882 7.18729858 11.95728882 7.71313477 13.32446289 C12.44972161 26.05312699 15.22552674 39.02256156 15.609375 52.6171875 C15.6609375 53.91914062 15.7125 55.22109375 15.765625 56.5625 C16.66095226 88.45249668 4.53436497 120.29150608 -17.10546875 143.73046875 C-23.91972861 150.84787414 -31.02724911 157.35344553 -39.390625 162.6171875 C-39.94202148 162.97474121 -40.49341797 163.33229492 -41.06152344 163.70068359 C-58.16982483 174.66287671 -78.61643549 181.0607492 -98.953125 180.8046875 C-100.41782227 180.8037207 -100.41782227 180.8037207 -101.91210938 180.80273438 C-107.81143331 180.76722005 -113.5399102 180.37192367 -119.390625 179.6171875 C-119.390625 177.6371875 -119.390625 175.6571875 -119.390625 173.6171875 C-113.715625 174.54102471 -113.715625 174.54102471 -111.20703125 175.12890625 C-86.51687814 179.40944597 -59.65338441 170.91146354 -39.375 156.9609375 C-36.24189968 154.66944125 -33.30875286 152.17702451 -30.390625 149.6171875 C-29.60171875 148.98683594 -28.8128125 148.35648438 -28 147.70703125 C-7.62478548 130.92953817 2.76011717 105.6270012 8.609375 80.6171875 C8.85816406 79.59625 9.10695313 78.5753125 9.36328125 77.5234375 C14.11752854 55.44777177 9.61269477 30.25102883 -2.265625 11.1796875 C-3.05425651 9.97237461 -3.84328439 8.7653205 -4.6328125 7.55859375 C-6.390625 4.6171875 -6.390625 4.6171875 -6.390625 1.6171875 C-4.01844838 0.03573642 -2.8530198 -0.45685611 0 0 Z " fill="#302F2B" transform="translate(963.390625,882.3828125)"/>
<path d="M0 0 C3.61027796 1.80513898 5.54504108 2.80573282 7 6.625 C7 7.40875 7 8.1925 7 9 C6.34 9.66 5.68 10.32 5 11 C5.99 11.99 6.98 12.98 8 14 C7.34 14 6.68 14 6 14 C6 14.66 6 15.32 6 16 C7.32 16 8.64 16 10 16 C10 11.05 10 6.1 10 1 C12.58396679 0.91887546 15.16537568 0.85945252 17.75 0.8125 C18.47960937 0.78736328 19.20921875 0.76222656 19.9609375 0.73632812 C23.18635061 0.69234522 25.59072076 0.79375913 28.49609375 2.2578125 C30.32113851 4.3720202 30.46187247 5.30683549 30.3125 8.0625 C30 12 30 12 29 14 C29.32199562 16.38621572 29.32199562 16.38621572 29.9375 19 C31 23.8410596 31 23.8410596 31 26 C29.68 26 28.36 26 27 26 C26.95101562 25.36191406 26.90203125 24.72382812 26.8515625 24.06640625 C26.77679688 23.24011719 26.70203125 22.41382813 26.625 21.5625 C26.52058594 20.32693359 26.52058594 20.32693359 26.4140625 19.06640625 C26.20910156 18.04353516 26.20910156 18.04353516 26 17 C23.56612247 15.78306124 21.58161154 15.68040104 18.875 15.4375 C17.26625 15.293125 15.6575 15.14875 14 15 C14 18.63 14 22.26 14 26 C12.68 26 11.36 26 10 26 C9.67 23.36 9.34 20.72 9 18 C8.39865234 18.84884766 8.39865234 18.84884766 7.78515625 19.71484375 C4.76762365 23.60821348 2.45830045 26.47853654 -2.5625 27.3125 C-5.86945266 27.39714896 -7.80581945 26.88406345 -10.4375 24.875 C-14.40887849 20.41930706 -15.47993523 17.03504808 -15.3203125 10.9921875 C-14.64671596 6.8027456 -12.04056431 4.07644584 -9.1875 1.125 C-5.92236925 -0.5542101 -3.62264505 -0.43721578 0 0 Z " fill="#EDEBE8" transform="translate(356,1108)"/>
<path d="M0 0 C0.99 0.33 1.98 0.66 3 1 C4.47965926 1.14573058 5.96403843 1.24663268 7.44921875 1.31640625 C8.29677734 1.35830078 9.14433594 1.40019531 10.01757812 1.44335938 C10.89865234 1.48267578 11.77972656 1.52199219 12.6875 1.5625 C13.58017578 1.60568359 14.47285156 1.64886719 15.39257812 1.69335938 C17.59490108 1.79935353 19.79733473 1.90142051 22 2 C22 2.99 22 3.98 22 5 C17.05 5 12.1 5 7 5 C7 7.64 7 10.28 7 13 C11.62 13 16.24 13 21 13 C21 13.99 21 14.98 21 16 C16.38 16 11.76 16 7 16 C7 18.64 7 21.28 7 24 C11.95 24 16.9 24 22 24 C22 24.99 22 25.98 22 27 C15.73 27 9.46 27 3 27 C3 25.68 3 24.36 3 23 C1.9275 23.45375 0.855 23.9075 -0.25 24.375 C-0.89324219 24.64699219 -1.53648438 24.91898438 -2.19921875 25.19921875 C-4.07777836 25.99727631 -4.07777836 25.99727631 -6.0625 27.1875 C-8.91434262 28.383434 -10.93179407 28.36818471 -14 28 C-17.24165752 26.31683167 -19.38064005 24.95719264 -21.375 21.875 C-22.64969874 16.01138581 -22.97082164 10.94164328 -20.25 5.5 C-18.03943888 3.04382098 -17.02237123 2.12496493 -14 1 C-10.80078125 0.83984375 -10.80078125 0.83984375 -7.3125 0.9375 C-5.20891853 0.99131799 -3.10416952 1.0205428 -1 1 C-0.67 0.67 -0.34 0.34 0 0 Z " fill="#EFEEEB" transform="translate(1234,1107)"/>
<path d="M0 0 C2.43119623 1.87015094 3.64069173 3.28138345 5 6 C5.66 5.67 6.32 5.34 7 5 C7.33 3.35 7.66 1.7 8 0 C12.29 0 16.58 0 21 0 C21 0.99 21 1.98 21 3 C17.7 3 14.4 3 11 3 C10.67 4.98 10.34 6.96 10 9 C11.051875 8.7525 12.10375 8.505 13.1875 8.25 C17 8 17 8 19.875 9.5 C22.64839572 12.76281849 23.07481382 14.73561227 23 19 C21.50787199 21.98425603 20.37357443 23.52756039 17.16015625 24.6328125 C12.28012506 25.51327878 9.27416169 24.67135106 5 22 C5 22.66 5 23.32 5 24 C-0.94 24 -6.88 24 -13 24 C-11.98876098 18.9438049 -11.45992715 17.55097786 -8 14 C-5.72356474 12.4954033 -3.42866016 11.26103509 -1 10 C-1 8.02 -1 6.04 -1 4 C-4.47147842 3.25042843 -4.47147842 3.25042843 -8 3 C-8.33 4.65 -8.66 6.3 -9 8 C-9.99 8 -10.98 8 -12 8 C-11.6875 5.125 -11.6875 5.125 -11 2 C-7.33218328 -0.44521115 -4.26546767 -0.72237759 0 0 Z " fill="#EDEBE9" transform="translate(1233,1145)"/>
<path d="M0 0 C4.31455798 2.28417775 7.13452098 4.43994016 9 9 C9.53218983 14.58799317 9.25015553 18.23310522 6 23 C2.82611558 25.74108199 0.69114149 26.87433791 -3.4375 27.625 C-8.20381698 26.78880404 -10.77745716 24.51384615 -14 21 C-15.96400295 17.0719941 -15.33541968 12.29212962 -15 8 C-13.61412734 4.30433958 -12.49788961 3.3208622 -9.1875 1.1875 C-5.71472323 -0.10627958 -3.66458779 -0.53441905 0 0 Z " fill="#EFEDEA" transform="translate(455,1143)"/>
<path d="M0 0 C13.68002361 -0.41454617 13.68002361 -0.41454617 18 3 C21.09707329 7.42572709 20.49824806 12.83355092 20 18 C18.77675504 20.99695015 17.98161288 22.35240817 15.3125 24.11328125 C12.2081832 25.30361894 9.56336312 25.19126726 6.25 25.125 C3.15625 25.063125 3.15625 25.063125 0 25 C0 16.75 0 8.5 0 0 Z " fill="#EEECE9" transform="translate(409,1144)"/>
<path d="M0 0 C2.94936194 0.91342179 4.40287315 2.07536403 6.09375 4.6484375 C6.09375 5.9684375 6.09375 7.2884375 6.09375 8.6484375 C5.43375 8.6484375 4.77375 8.6484375 4.09375 8.6484375 C4.09375 9.3084375 4.09375 9.9684375 4.09375 10.6484375 C5.08375 10.6484375 6.07375 10.6484375 7.09375 10.6484375 C9.38950603 8.35268147 9.41714599 7.64001225 9.71875 4.5234375 C9.8425 3.2446875 9.96625 1.9659375 10.09375 0.6484375 C11.41375 0.6484375 12.73375 0.6484375 14.09375 0.6484375 C14.09375 8.8984375 14.09375 17.1484375 14.09375 25.6484375 C12.77375 25.6484375 11.45375 25.6484375 10.09375 25.6484375 C9.76375 24.6584375 9.43375 23.6684375 9.09375 22.6484375 C8.52527344 22.9371875 7.95679688 23.2259375 7.37109375 23.5234375 C2.47539119 25.87729783 -1.36400742 27.50109021 -6.90625 26.6484375 C-10.23408116 24.6951453 -11.61817872 23.62344799 -12.71875 19.8984375 C-12.780625 19.1559375 -12.8425 18.4134375 -12.90625 17.6484375 C-11.91625 17.6484375 -10.92625 17.6484375 -9.90625 17.6484375 C-9.6175 18.2878125 -9.32875 18.9271875 -9.03125 19.5859375 C-8.07801549 21.80049829 -8.07801549 21.80049829 -5.90625 22.6484375 C-1.76121339 22.89630767 -1.76121339 22.89630767 2.09375 21.6484375 C2.09375 19.9984375 2.09375 18.3484375 2.09375 16.6484375 C1.25070312 16.38289063 0.40765625 16.11734375 -0.4609375 15.84375 C-1.55664062 15.49054688 -2.65234375 15.13734375 -3.78125 14.7734375 C-5.41707031 14.25136719 -5.41707031 14.25136719 -7.0859375 13.71875 C-9.90625 12.6484375 -9.90625 12.6484375 -11.90625 10.6484375 C-12.52154002 6.69300163 -12.19124668 5.08052924 -9.96875 1.7109375 C-6.21356978 -0.81806143 -4.34520509 -0.7676529 0 0 Z " fill="#D1D1CD" transform="translate(1169.90625,1108.3515625)"/>
<path d="M0 0 C2.90717073 2.21863029 3.83981643 3.51944929 5 7 C5.60984988 13.05158728 5.02880613 17.69958928 2 23 C-0.47545428 25.04865181 -1.7758981 25 -5 25 C-8.14082167 23.95305944 -9.63381936 22.96518379 -11.30859375 20.078125 C-13.11305673 14.65454136 -13.15214644 8.30750221 -10.59765625 3.19140625 C-7.69451545 -0.7906524 -4.71063217 -0.40608898 0 0 Z " fill="#363433" transform="translate(1214,1145)"/>
<path d="M0 0 C3.58875 -0.0928125 3.58875 -0.0928125 7.25 -0.1875 C8.37003418 -0.22846802 8.37003418 -0.22846802 9.51269531 -0.27026367 C12.56247563 -0.30840643 14.7337317 -0.13587701 17.46484375 1.2578125 C19.32661516 3.37066249 19.46298274 4.28635287 19.3125 7.0625 C19 11 19 11 18 13 C18.32199562 15.38621572 18.32199562 15.38621572 18.9375 18 C20 22.8410596 20 22.8410596 20 25 C18.68 25 17.36 25 16 25 C15.92652344 24.04287109 15.92652344 24.04287109 15.8515625 23.06640625 C15.73941406 21.82697266 15.73941406 21.82697266 15.625 20.5625 C15.55539062 19.73878906 15.48578125 18.91507813 15.4140625 18.06640625 C15.27742188 17.38449219 15.14078125 16.70257812 15 16 C12.56612247 14.78306124 10.58161154 14.68040104 7.875 14.4375 C6.26625 14.293125 4.6575 14.14875 3 14 C3 17.63 3 21.26 3 25 C2.01 25 1.02 25 0 25 C0 16.75 0 8.5 0 0 Z " fill="#3A3835" transform="translate(367,1109)"/>
<path d="M0 0 C1.65 0 3.3 0 5 0 C6.34117853 3.60129621 7.6715839 7.20647859 9 10.8125 C9.3815625 11.83666016 9.763125 12.86082031 10.15625 13.91601562 C10.5171875 14.89892578 10.878125 15.88183594 11.25 16.89453125 C11.75273437 18.25348511 11.75273437 18.25348511 12.265625 19.63989258 C13 22 13 22 13 25 C11.68 25 10.36 25 9 25 C8.34 22.69 7.68 20.38 7 18 C2.05 18.495 2.05 18.495 -3 19 C-3.66 20.98 -4.32 22.96 -5 25 C-6.32 25 -7.64 25 -9 25 C-6.286575 16.55823333 -3.14265947 8.28889147 0 0 Z " fill="#3A3836" transform="translate(419,1109)"/>
<path d="M0 0 C4.31455798 2.28417775 7.13452098 4.43994016 9 9 C9.53218983 14.58799317 9.25015553 18.23310522 6 23 C2.82611558 25.74108199 0.69114149 26.87433791 -3.4375 27.625 C-8.20381698 26.78880404 -10.77745716 24.51384615 -14 21 C-15.96400295 17.0719941 -15.33541968 12.29212962 -15 8 C-13.61412734 4.30433958 -12.49788961 3.3208622 -9.1875 1.1875 C-5.71472323 -0.10627958 -3.66458779 -0.53441905 0 0 Z M-10.5625 6 C-12.37315175 9.77875148 -12.77112614 12.92972596 -12 17 C-10.62732776 20.51812347 -10.62732776 20.51812347 -8 23 C-4.64982715 24.41909682 -4.64982715 24.41909682 -1 24 C2.72262893 22.14680474 2.72262893 22.14680474 5 19 C5.94558962 14.11325061 5.93181055 9.7420806 3.5625 5.3125 C-1.30947177 2.81709983 -6.17748029 2.5775456 -10.5625 6 Z " fill="#343230" transform="translate(455,1143)"/>
<path d="M0 0 C6.27 0 12.54 0 19 0 C19 0.99 19 1.98 19 3 C14.05 3 9.1 3 4 3 C4 5.64 4 8.28 4 11 C8.62 11 13.24 11 18 11 C18 11.99 18 12.98 18 14 C13.38 14 8.76 14 4 14 C4 16.64 4 19.28 4 22 C8.95 22 13.9 22 19 22 C19 22.99 19 23.98 19 25 C12.73 25 6.46 25 0 25 C0 16.75 0 8.5 0 0 Z " fill="#3F3E3B" transform="translate(1237,1109)"/>
<path d="M0 0 C1.32 0 2.64 0 4 0 C5.46386719 1.65234375 5.46386719 1.65234375 6.796875 3.9375 C7.28027344 4.74960938 7.76367188 5.56171875 8.26171875 6.3984375 C8.75285156 7.25695313 9.24398438 8.11546875 9.75 9 C10.50990234 10.28777344 10.50990234 10.28777344 11.28515625 11.6015625 C12.53661 13.72667264 13.77002427 15.86238701 15 18 C15.495 9.09 15.495 9.09 16 0 C16.99 0 17.98 0 19 0 C19 8.25 19 16.5 19 25 C17.68 25 16.36 25 15 25 C13.53613281 23.34765625 13.53613281 23.34765625 12.203125 21.0625 C11.71972656 20.25039062 11.23632812 19.43828125 10.73828125 18.6015625 C10.24714844 17.74304687 9.75601562 16.88453125 9.25 16 C8.74339844 15.14148437 8.23679687 14.28296875 7.71484375 13.3984375 C6.46339 11.27332736 5.22997573 9.13761299 4 7 C3.67 12.94 3.34 18.88 3 25 C2.01 25 1.02 25 0 25 C0 16.75 0 8.5 0 0 Z " fill="#32302E" transform="translate(1189,1109)"/>
<path d="M0 0 C3.375 1.75 3.375 1.75 6 4 C6 5.32 6 6.64 6 8 C5.01 8 4.02 8 3 8 C2.38125 7.34 1.7625 6.68 1.125 6 C-0.84526653 3.74712023 -0.84526653 3.74712023 -3.6875 3.6875 C-5.95857126 3.75655686 -5.95857126 3.75655686 -7 5 C-7.04063832 6.66617115 -7.042721 8.33388095 -7 10 C-6.24074219 10.18175781 -5.48148437 10.36351562 -4.69921875 10.55078125 C-3.70535156 10.80214844 -2.71148437 11.05351563 -1.6875 11.3125 C-0.70136719 11.55613281 0.28476562 11.79976562 1.30078125 12.05078125 C4.03786037 13.01331414 5.28671166 13.6927717 7 16 C7.4375 18.9375 7.4375 18.9375 7 22 C5.1329009 24.30275556 3.64352259 25.67823871 1 27 C-6.0010627 27.5738576 -6.0010627 27.5738576 -9.9375 25.3125 C-12.18903896 22.78804723 -12.72253508 21.32957907 -13 18 C-11.68 18 -10.36 18 -9 18 C-8.54625 18.825 -8.0925 19.65 -7.625 20.5 C-7.08875 21.325 -6.5525 22.15 -6 23 C-1.91399472 23.59587577 -0.47351075 23.31567384 3 21 C2.96312122 19.03574814 2.96312122 19.03574814 2 17 C-0.70729549 15.74009267 -0.70729549 15.74009267 -3.9375 14.9375 C-9.79229644 13.31155534 -9.79229644 13.31155534 -12 10 C-12.375 7.5625 -12.375 7.5625 -12 5 C-8.32973019 0.59567623 -5.71794906 -0.54980279 0 0 Z " fill="#363531" transform="translate(354,1143)"/>
<path d="M0 0 C5.94 0 11.88 0 18 0 C18 0.99 18 1.98 18 3 C13.05 3 8.1 3 3 3 C3 5.31 3 7.62 3 10 C7.62 10 12.24 10 17 10 C17 11.32 17 12.64 17 14 C12.38 14 7.76 14 3 14 C3 16.64 3 19.28 3 22 C7.95 22 12.9 22 18 22 C18 22.99 18 23.98 18 25 C12.06 25 6.12 25 0 25 C0 16.75 0 8.5 0 0 Z " fill="#22211F" transform="translate(391,1109)"/>
<path d="M0 0 C2.91428818 0.9079965 4.39135238 2.13575596 6.09375 4.65234375 C6.09375 5.64234375 6.09375 6.63234375 6.09375 7.65234375 C5.10375 7.65234375 4.11375 7.65234375 3.09375 7.65234375 C2.51625 6.99234375 1.93875 6.33234375 1.34375 5.65234375 C-0.87379589 3.26956944 -0.87379589 3.26956944 -4.65625 3.40234375 C-6.265 3.52609375 -6.265 3.52609375 -7.90625 3.65234375 C-7.90625 5.30234375 -7.90625 6.95234375 -7.90625 8.65234375 C-7.31457031 8.83410156 -6.72289062 9.01585937 -6.11328125 9.203125 C3.79709928 12.35569303 3.79709928 12.35569303 7.09375 15.65234375 C7.46875 18.46484375 7.46875 18.46484375 7.09375 21.65234375 C3.79967782 24.85972982 1.3583944 26.53303767 -3.21875 26.96484375 C-7.52801402 26.59965188 -9.00498757 25.80959992 -11.90625 22.65234375 C-12.71875 19.90234375 -12.71875 19.90234375 -12.90625 17.65234375 C-11.91625 17.65234375 -10.92625 17.65234375 -9.90625 17.65234375 C-9.6175 18.29171875 -9.32875 18.93109375 -9.03125 19.58984375 C-8.07801549 21.80440454 -8.07801549 21.80440454 -5.90625 22.65234375 C-1.76121339 22.90021392 -1.76121339 22.90021392 2.09375 21.65234375 C2.09375 20.00234375 2.09375 18.35234375 2.09375 16.65234375 C1.25070312 16.38679688 0.40765625 16.12125 -0.4609375 15.84765625 C-1.55664062 15.49445313 -2.65234375 15.14125 -3.78125 14.77734375 C-5.41707031 14.25527344 -5.41707031 14.25527344 -7.0859375 13.72265625 C-9.90625 12.65234375 -9.90625 12.65234375 -11.90625 10.65234375 C-12.52154002 6.69690788 -12.19124668 5.08443549 -9.96875 1.71484375 C-6.21306226 -0.81449697 -4.3460618 -0.76056082 0 0 Z " fill="#363532" transform="translate(1169.90625,1108.34765625)"/>
<path d="M0 0 C13.68002361 -0.41454617 13.68002361 -0.41454617 18 3 C21.09707329 7.42572709 20.49824806 12.83355092 20 18 C18.77675504 20.99695015 17.98161288 22.35240817 15.3125 24.11328125 C12.2081832 25.30361894 9.56336312 25.19126726 6.25 25.125 C3.15625 25.063125 3.15625 25.063125 0 25 C0 16.75 0 8.5 0 0 Z M3 3 C3 9.27 3 15.54 3 22 C9.76788856 22.71430881 9.76788856 22.71430881 15.625 20.0625 C17.49590895 15.89547552 17.76348065 12.49154044 17 8 C15.85243952 4.77370045 15.85243952 4.77370045 13 3 C9.55546233 2.5896789 6.49186828 2.77027182 3 3 Z " fill="#292825" transform="translate(409,1144)"/>
<path d="M0 0 C5.94 0 11.88 0 18 0 C18 0.99 18 1.98 18 3 C13.05 3 8.1 3 3 3 C3 5.64 3 8.28 3 11 C7.62 11 12.24 11 17 11 C17 11.99 17 12.98 17 14 C12.38 14 7.76 14 3 14 C3 16.64 3 19.28 3 22 C7.95 22 12.9 22 18 22 C18 22.99 18 23.98 18 25 C12.06 25 6.12 25 0 25 C0 16.75 0 8.5 0 0 Z " fill="#22211F" transform="translate(485,1109)"/>
<path d="M0 0 C3.375 1.6875 3.375 1.6875 6 4 C6.875 6.75 6.875 6.75 7 9 C6.01 9 5.02 9 4 9 C3.608125 8.34 3.21625 7.68 2.8125 7 C1.22855178 4.85323666 1.22855178 4.85323666 -0.86328125 4.62890625 C-5.04713175 4.44800742 -5.04713175 4.44800742 -8.73046875 6.21875 C-10.40690955 8.57092541 -10.36854518 10.0705735 -10.3125 12.9375 C-10.30863281 13.79214844 -10.30476563 14.64679688 -10.30078125 15.52734375 C-9.97939751 18.16936854 -9.49907778 19.80299092 -8 22 C-4.63239813 23.1716367 -4.63239813 23.1716367 -1 23 C1.41281883 21.15863826 2.65150913 19.69698174 4 17 C4.99 17 5.98 17 7 17 C6.67497202 19.92525181 6.14220891 21.78668664 4.5 24.25 C0.84647054 26.80747062 -2.56728655 27.45325839 -7 27 C-10.40195894 25.3673474 -12.4489316 22.92679686 -14.375 19.6875 C-15.63612425 14.26466572 -15.83330329 10.57732409 -13.25 5.6875 C-9.06477193 0.68847758 -6.72673871 -0.81184778 0 0 Z " fill="#464541" transform="translate(356,1108)"/>
<path d="M0 0 C2.5625 1.875 2.5625 1.875 4 4 C4 4.99 4 5.98 4 7 C3.01 7 2.02 7 1 7 C0.34 6.01 -0.32 5.02 -1 4 C-4.05461272 3.30445251 -6.93045013 3.40970195 -10 4 C-12.76645122 6.76645122 -12.96073456 8.63352252 -13.375 12.5 C-12.96647599 16.31289077 -12.58584552 18.16391137 -10 21 C-6.54578685 22.16025399 -6.54578685 22.16025399 -3 22 C-0.3520265 20.23468433 -0.0230014 19.06900421 1 16 C2.32 16 3.64 16 5 16 C4.10732939 19.92775068 3.33981284 21.70652528 0.25 24.375 C-3.34334126 26.17167063 -5.05397137 26.65767144 -9 26 C-12.24165752 24.31683167 -14.38064005 22.95719264 -16.375 19.875 C-17.64969874 14.01138581 -17.97082164 8.94164328 -15.25 3.5 C-10.68256245 -1.57493061 -6.37583377 -1.63782886 0 0 Z " fill="#383734" transform="translate(1229,1109)"/>
<path d="M0 0 C0.99 0 1.98 0 3 0 C3.02187378 0.83978394 3.02187378 0.83978394 3.04418945 1.6965332 C3.11871352 4.23588137 3.21535581 6.77392078 3.3125 9.3125 C3.33505859 10.19357422 3.35761719 11.07464844 3.38085938 11.98242188 C3.41630859 12.82998047 3.45175781 13.67753906 3.48828125 14.55078125 C3.51446533 15.33106689 3.54064941 16.11135254 3.56762695 16.9152832 C4.10796695 19.52057017 4.84485734 20.46087852 7 22 C10.61462786 21.92421045 10.61462786 21.92421045 14 21 C15.14654482 18.70691037 15.19729117 17.20090344 15.31640625 14.6484375 C15.35830078 13.79765625 15.40019531 12.946875 15.44335938 12.0703125 C15.48267578 11.18085937 15.52199219 10.29140625 15.5625 9.375 C15.60568359 8.4778125 15.64886719 7.580625 15.69335938 6.65625 C15.79956861 4.43765717 15.90161194 2.2189512 16 0 C16.99 0 17.98 0 19 0 C19.11667875 3.22886009 19.18740546 6.45717445 19.25 9.6875 C19.30027344 11.05551758 19.30027344 11.05551758 19.3515625 12.45117188 C19.41360847 16.71683239 19.39501131 19.30297331 17.2578125 23.07421875 C14.88639319 25.09689993 13.69017408 25.7915951 10.625 26.125 C9.89539063 26.23070312 9.16578125 26.33640625 8.4140625 26.4453125 C5.47537919 25.90322529 3.42258426 24.78720381 1.19970703 22.78710938 C-1.3151233 19.04096408 -0.60197849 14.5204612 -0.375 10.1875 C-0.33439453 8.71893555 -0.33439453 8.71893555 -0.29296875 7.22070312 C-0.22245648 4.81153379 -0.12398568 2.40691181 0 0 Z " fill="#24221F" transform="translate(385,1144)"/>
<path d="M0 0 C4.29 0 8.58 0 13 0 C13 0.99 13 1.98 13 3 C9.7 3 6.4 3 3 3 C2.67 4.98 2.34 6.96 2 9 C3.051875 8.7525 4.10375 8.505 5.1875 8.25 C9 8 9 8 11.875 9.5 C14.64839572 12.76281849 15.07481382 14.73561227 15 19 C13.49276602 22.01446795 12.32137993 23.50448253 9.125 24.703125 C6.92629011 25.15286111 5.22496767 25.31281724 3 25 C0 22.6875 0 22.6875 -2 20 C-2 19.34 -2 18.68 -2 18 C-1.01 18 -0.02 18 1 18 C1.66 18.99 2.32 19.98 3 21 C6.04195427 21.33340471 6.04195427 21.33340471 9 21 C10.41577477 19.81575674 10.41577477 19.81575674 10.0625 16.4375 C10.041875 15.303125 10.02125 14.16875 10 13 C5.79405774 12.27204845 3.19895255 11.95026186 -1 13 C-0.67 8.71 -0.34 4.42 0 0 Z " fill="#3F3F3B" transform="translate(1241,1145)"/>
<path d="M0 0 C2.5625 1.5625 2.5625 1.5625 4 4 C4.0625 7.5 4.0625 7.5 3 11 C0.8125 13.1875 0.8125 13.1875 -2 15 C-6.14836925 17.40016187 -6.14836925 17.40016187 -9 21 C-4.71 21 -0.42 21 4 21 C4 21.99 4 22.98 4 24 C-1.61 24 -7.22 24 -13 24 C-11.98876098 18.9438049 -11.45992715 17.55097786 -8 14 C-5.72356474 12.4954033 -3.42866016 11.26103509 -1 10 C-1 8.02 -1 6.04 -1 4 C-4.47147842 3.25042843 -4.47147842 3.25042843 -8 3 C-8.33 4.65 -8.66 6.3 -9 8 C-9.99 8 -10.98 8 -12 8 C-11.6875 5.125 -11.6875 5.125 -11 2 C-7.3100508 -0.45996614 -4.28340287 -0.67949564 0 0 Z " fill="#312F2D" transform="translate(1233,1145)"/>
<path d="M0 0 C2.09765625 0.34765625 2.09765625 0.34765625 4.16015625 1.97265625 C5.43522208 5.20282301 5.78760871 6.89789396 5.09765625 10.34765625 C2.48832184 13.35623308 -0.48866498 15.66624274 -4.07421875 17.39453125 C-6.07913686 18.21261209 -6.07913686 18.21261209 -6.90234375 20.34765625 C-2.94234375 20.67765625 1.01765625 21.00765625 5.09765625 21.34765625 C5.09765625 22.33765625 5.09765625 23.32765625 5.09765625 24.34765625 C-0.18234375 24.34765625 -5.46234375 24.34765625 -10.90234375 24.34765625 C-9.90234375 17.34765625 -9.90234375 17.34765625 -7.3984375 14.9140625 C-6.38910156 14.25277344 -5.37976562 13.59148437 -4.33984375 12.91015625 C-2.82197266 11.89115234 -2.82197266 11.89115234 -1.2734375 10.8515625 C-0.49097656 10.35527344 0.29148437 9.85898438 1.09765625 9.34765625 C0.76765625 7.69765625 0.43765625 6.04765625 0.09765625 4.34765625 C-1.55234375 4.01765625 -3.20234375 3.68765625 -4.90234375 3.34765625 C-5.55203125 4.58515625 -5.55203125 4.58515625 -6.21484375 5.84765625 C-6.77171875 6.67265625 -7.32859375 7.49765625 -7.90234375 8.34765625 C-8.89234375 8.34765625 -9.88234375 8.34765625 -10.90234375 8.34765625 C-9.92116622 1.08694255 -6.92363887 -0.25893284 0 0 Z " fill="#2E2D29" transform="translate(1194.90234375,1144.65234375)"/>
<path d="M0 0 C1.32 0 2.64 0 4 0 C5.98 5.94 7.96 11.88 10 18 C12.26546852 14.60179721 13.38901628 11.16057722 14.625 7.3125 C14.85445313 6.61060547 15.08390625 5.90871094 15.3203125 5.18554688 C15.88429209 3.45835938 16.44269339 1.72935218 17 0 C18.32 0 19.64 0 21 0 C20.05065965 3.34970496 19.03401499 6.67549762 18 10 C17.62488281 11.23621094 17.24976563 12.47242188 16.86328125 13.74609375 C16.45239016 15.01883418 16.03964145 16.29097645 15.625 17.5625 C15.05652344 19.35880859 15.05652344 19.35880859 14.4765625 21.19140625 C13.98929687 22.11824219 13.50203125 23.04507812 13 24 C10.40771484 24.67553711 10.40771484 24.67553711 8 25 C6.65882147 21.39870379 5.3284161 17.79352141 4 14.1875 C3.6184375 13.16333984 3.236875 12.13917969 2.84375 11.08398438 C2.4828125 10.10107422 2.121875 9.11816406 1.75 8.10546875 C1.41484375 7.19949951 1.0796875 6.29353027 0.734375 5.36010742 C0 3 0 3 0 0 Z " fill="#3C3A36" transform="translate(461,1109)"/>
<path d="M0 0 C4.4840341 -0.04951788 8.96792239 -0.08577526 13.45214844 -0.10986328 C14.97691623 -0.11990744 16.50166484 -0.13354531 18.02636719 -0.15087891 C20.22075138 -0.17519738 22.41488042 -0.18649889 24.609375 -0.1953125 C25.92905273 -0.20578613 27.24873047 -0.21625977 28.60839844 -0.22705078 C31.74721592 -0.01692263 33.48673196 0.15453442 36 2 C37.2077558 5.62326739 36.54311128 6.64146369 35 10 C33.92685547 9.45859375 33.92685547 9.45859375 32.83203125 8.90625 C23.45077568 4.53723059 15.10412154 3.72982905 5 6 C5.33 4.68 5.66 3.36 6 2 C3.03 1.505 3.03 1.505 0 1 C0 0.67 0 0.34 0 0 Z " fill="#2C2B29" transform="translate(490,549)"/>
<path d="M0 0 C2.97 0.495 2.97 0.495 6 1 C5.67 2.65 5.34 4.3 5 6 C5.99 6 6.98 6 8 6 C8.33 4.35 8.66 2.7 9 1 C11.875 0.375 11.875 0.375 15 0 C17 2 17 2 17.42578125 4.8984375 C17 8 17 8 14.91796875 9.9765625 C14.01691406 10.52054688 13.11585937 11.06453125 12.1875 11.625 C8.68559844 13.77768407 6.27128638 15.54402271 4 19 C3.01 18.67 2.02 18.34 1 18 C1.16113281 17.43152344 1.32226562 16.86304688 1.48828125 16.27734375 C2.73536711 10.72733568 2.63753596 5.11022593 0 0 Z " fill="#EDEBE9" transform="translate(1216,1147)"/>
<path d="M0 0 C1.9375 0.8125 1.9375 0.8125 3.9375 2.8125 C4.23828125 5.96484375 4.23828125 5.96484375 4.25 9.75 C4.26675781 10.99652344 4.28351563 12.24304687 4.30078125 13.52734375 C3.9375 16.8125 3.9375 16.8125 2.58203125 18.765625 C0.9375 19.8125 0.9375 19.8125 -1.6875 19.625 C-4.0625 18.8125 -4.0625 18.8125 -5.0625 16.8125 C-5.21129681 14.50328797 -5.28384584 12.1888236 -5.3125 9.875 C-5.33828125 8.62847656 -5.3640625 7.38195313 -5.390625 6.09765625 C-5.0625 2.8125 -5.0625 2.8125 -3.67578125 0.859375 C-2.0625 -0.1875 -2.0625 -0.1875 0 0 Z " fill="#EEEDEB" transform="translate(1211.0625,1147.1875)"/>
<path d="M0 0 C0.99 0.33 1.98 0.66 3 1 C2.83757812 1.53625 2.67515625 2.0725 2.5078125 2.625 C1.9002172 5.46667646 1.86773722 8.09488707 1.875 11 C1.87242188 12.03125 1.86984375 13.0625 1.8671875 14.125 C1.98136329 16.59657009 2.28649344 18.6442958 3 21 C2.01 20.67 1.02 20.34 0 20 C0.33 21.98 0.66 23.96 1 26 C0.34 25.67 -0.32 25.34 -1 25 C-1 23.35 -1 21.7 -1 20 C-5.29 20 -9.58 20 -14 20 C-12.01703091 16.03406182 -11.56815662 15.40832454 -8 13.375 C-5.6423238 12.01413543 -3.93908889 10.93908889 -2 9 C-1.75787127 7.01871492 -1.75787127 7.01871492 -1.875 4.875 C-1.91625 3.59625 -1.9575 2.3175 -2 1 C-1.34 0.67 -0.68 0.34 0 0 Z " fill="#EDECE9" transform="translate(1201,1146)"/>
<path d="M0 0 C4.09338652 -0.04939115 8.18665798 -0.08571501 12.28027344 -0.10986328 C13.67320781 -0.11992877 15.06612102 -0.13358234 16.45898438 -0.15087891 C18.4595436 -0.1751022 20.46025615 -0.18540814 22.4609375 -0.1953125 C24.26763916 -0.21102295 24.26763916 -0.21102295 26.11083984 -0.22705078 C29 0 29 0 31 2 C30.34 2.66 29.68 3.32 29 4 C28.01 4 27.02 4 26 4 C26 4.66 26 5.32 26 6 C25.05125 5.835 24.1025 5.67 23.125 5.5 C14.76135841 4.35337172 7.86276808 4.8093115 0 8 C-0.66 7.34 -1.32 6.68 -2 6 C-1.01 6 -0.02 6 1 6 C1.6814823 4.10820797 1.6814823 4.10820797 2 2 C1.34 1.34 0.68 0.68 0 0 Z " fill="#2E2C2A" transform="translate(1079,549)"/>
<path d="M0 0 C6.93 0 13.86 0 21 0 C21 0.99 21 1.98 21 3 C18.03 3 15.06 3 12 3 C12 10.26 12 17.52 12 25 C11.01 25 10.02 25 9 25 C9 17.74 9 10.48 9 3 C6.03 3 3.06 3 0 3 C0 2.01 0 1.02 0 0 Z " fill="#252422" transform="translate(362,1144)"/>
<path d="M0 0 C6.93 0 13.86 0 21 0 C21 0.99 21 1.98 21 3 C18.03 3 15.06 3 12 3 C12 10.26 12 17.52 12 25 C11.01 25 10.02 25 9 25 C9 17.74 9 10.48 9 3 C6.03 3 3.06 3 0 3 C0 2.01 0 1.02 0 0 Z " fill="#252522" transform="translate(432,1109)"/>
<path d="M0 0 C5.82528412 2.33011365 9.98733813 6.20313772 14 11 C14 11.66 14 12.32 14 13 C14.639375 13.28875 15.27875 13.5775 15.9375 13.875 C18 15 18 15 19 17 C11.60606981 14.84071065 4.29582259 12.4695482 -3 10 C-3 9.34 -3 8.68 -3 8 C-2.01 7.67 -1.02 7.34 0 7 C-0.185625 6.401875 -0.37125 5.80375 -0.5625 5.1875 C-1 3 -1 3 0 0 Z " fill="#E8E8E6" transform="translate(837,545)"/>
<path d="M0 0 C7.59 0 15.18 0 23 0 C22.67 0.66 22.34 1.32 22 2 C21.34 1.67 20.68 1.34 20 1 C20 1.99 20 2.98 20 4 C19.17757812 4.09796875 18.35515625 4.1959375 17.5078125 4.296875 C10.13781046 5.28408082 3.74634074 6.86287541 -3 10 C-3 6.40577503 -1.85018932 5.00655764 0 2 C0 1.34 0 0.68 0 0 Z " fill="#2B2A28" transform="translate(774,549)"/>
<path d="M0 0 C0.309375 0.8971875 0.309375 0.8971875 0.625 1.8125 C3.69438234 6.69560828 10.77953462 8.1098315 16 10 C16.1875 12.375 16.1875 12.375 16 15 C12.50875983 17.32749345 11.10777749 17.50299316 7 17 C4.625 15.125 4.625 15.125 3 13 C3 12.34 3 11.68 3 11 C3.66 10.67 4.32 10.34 5 10 C4.67 9.01 4.34 8.02 4 7 C2.68 7 1.36 7 0 7 C-0.66 5.68 -1.32 4.36 -2 3 C-1.34 3 -0.68 3 0 3 C0 2.01 0 1.02 0 0 Z " fill="#E8E7E4" transform="translate(1157,1115)"/>
<path d="M0 0 C0.99 0 1.98 0 3 0 C2.67 1.32 2.34 2.64 2 4 C2.90492188 3.83951172 2.90492188 3.83951172 3.828125 3.67578125 C10.34591195 2.69811321 10.34591195 2.69811321 13.4375 4.125 C16.05170045 7.26204054 17 9.93074514 17 14 C15.68 14 14.36 14 13 14 C12.34 11.69 11.68 9.38 11 7 C7.7 7.33 4.4 7.66 1 8 C0.34 9.98 -0.32 11.96 -1 14 C-2.32 14 -3.64 14 -5 14 C-3.45730076 9.27934033 -1.92205381 4.58335908 0 0 Z " fill="#242220" transform="translate(415,1120)"/>
<path d="M0 0 C3.96 0 7.92 0 12 0 C12.66 0.66 13.32 1.32 14 2 C10.37 2 6.74 2 3 2 C3 5.3 3 8.6 3 12 C6.3 12 9.6 12 13 12 C13 12.66 13 13.32 13 14 C9.7 14 6.4 14 3 14 C3 17.63 3 21.26 3 25 C2.01 25 1.02 25 0 25 C0 16.75 0 8.5 0 0 Z " fill="#23221F" transform="translate(367,1109)"/>
<path d="M0 0 C1.96035175 0.44962196 3.91824309 0.90998248 5.875 1.375 C7.51082031 1.75785156 7.51082031 1.75785156 9.1796875 2.1484375 C12 3 12 3 14 5 C13.8125 7 13.8125 7 13 9 C9.53076119 11.31282587 8.07794425 11.42478586 4 11 C2.125 9.6875 2.125 9.6875 1 8 C1 7.01 1 6.02 1 5 C-0.32 4.67 -1.64 4.34 -3 4 C-2.34 4 -1.68 4 -1 4 C-0.67 2.68 -0.34 1.36 0 0 Z " fill="#EEECE9" transform="translate(344,1156)"/>
<path d="M0 0 C5.94 0 11.88 0 18 0 C18 0.99 18 1.98 18 3 C13.05 3 8.1 3 3 3 C3 5.31 3 7.62 3 10 C7.62 10 12.24 10 17 10 C17 11.32 17 12.64 17 14 C12.38 14 7.76 14 3 14 C3 13.67 3 13.34 3 13 C7.29 13 11.58 13 16 13 C16 12.34 16 11.68 16 11 C11.38 11 6.76 11 2 11 C2 10.01 2 9.02 2 8 C1.34 8 0.68 8 0 8 C0 5.36 0 2.72 0 0 Z " fill="#43413F" transform="translate(391,1109)"/>
<path d="M0 0 C0.33 0 0.66 0 1 0 C1 8.25 1 16.5 1 25 C0.67 25 0.34 25 0 25 C-0.33 23.02 -0.66 21.04 -1 19 C-1.66 19 -2.32 19 -3 19 C-2.34 19.99 -1.68 20.98 -1 22 C-1.375 24.1875 -1.375 24.1875 -2 26 C-4.07571582 22.88642627 -4.55052105 21.0053011 -5.1875 17.375 C-5.36667969 16.39273437 -5.54585938 15.41046875 -5.73046875 14.3984375 C-5.81941406 13.60695313 -5.90835937 12.81546875 -6 12 C-5.67 11.67 -5.34 11.34 -5 11 C-4.92820036 9.48071962 -4.91607993 7.95832518 -4.9375 6.4375 C-4.94652344 5.61121094 -4.95554687 4.78492188 -4.96484375 3.93359375 C-4.97644531 3.29550781 -4.98804688 2.65742187 -5 2 C-4.34 1.67 -3.68 1.34 -3 1 C-2.34 2.32 -1.68 3.64 -1 5 C-0.67 3.35 -0.34 1.7 0 0 Z " fill="#D2D0CE" transform="translate(390,1109)"/>
<path d="M0 0 C1.79133978 -0.05391993 3.58313899 -0.09275571 5.375 -0.125 C6.37273437 -0.14820313 7.37046875 -0.17140625 8.3984375 -0.1953125 C11 0 11 0 13 2 C13.1875 4.5625 13.1875 4.5625 13 7 C12 8 12 8 9.27734375 8.09765625 C7.62412109 8.08025391 7.62412109 8.08025391 5.9375 8.0625 C4.83277344 8.05347656 3.72804688 8.04445313 2.58984375 8.03515625 C1.30787109 8.01775391 1.30787109 8.01775391 0 8 C0 5.36 0 2.72 0 0 Z " fill="#EEEEEB" transform="translate(370,1112)"/>
<path d="M0 0 C0.81984375 0.144375 1.6396875 0.28875 2.484375 0.4375 C7.11787993 1.17886079 11.76843294 1.71537582 16.4296875 2.25 C21.78325123 2.89162562 21.78325123 2.89162562 24 4 C24 4.66 24 5.32 24 6 C17.53289255 9.23355372 7.00226722 6.94945996 0 6 C0 4.02 0 2.04 0 0 Z " fill="#2E2E2C" transform="translate(844,1056)"/>
<path d="M0 0 C3.3 0 6.6 0 10 0 C10 0.66 10 1.32 10 2 C7.69 2 5.38 2 3 2 C3 8.93 3 15.86 3 23 C4.65 23 6.3 23 8 23 C7.67 23.66 7.34 24.32 7 25 C4.69 25 2.38 25 0 25 C0 16.75 0 8.5 0 0 Z " fill="#23211F" transform="translate(409,1144)"/>
<path d="M0 0 C0.99 0 1.98 0 3 0 C3 8.25 3 16.5 3 25 C1.68 25 0.36 25 -1 25 C-4.22265625 19.7265625 -4.22265625 19.7265625 -5 18 C-4.67 17.34 -4.34 16.68 -4 16 C-2.515 16.99 -2.515 16.99 -1 18 C-0.505 9.09 -0.505 9.09 0 0 Z " fill="#2B2A27" transform="translate(1205,1109)"/>
<path d="M0 0 C0.99 0.495 0.99 0.495 2 1 C2.103125 1.928125 2.20625 2.85625 2.3125 3.8125 C2.75650124 7.11719012 2.75650124 7.11719012 5.125 9.4375 C7.98563557 11.27913915 7.98563557 11.27913915 11.625 11.0625 C15.16072954 10.33168767 15.16072954 10.33168767 16.75 7.4375 C17.1625 6.633125 17.575 5.82875 18 5 C18.99 5 19.98 5 21 5 C20.67497202 7.92525181 20.14220891 9.78668664 18.5 12.25 C14.85643265 14.80049714 11.42314613 15.47445512 7 15 C3.87059703 13.35089553 1.60192218 11.20384436 0 8 C-0.13415472 5.3276379 -0.04318541 2.67749512 0 0 Z " fill="#3C3A39" transform="translate(342,1120)"/>
<path d="M0 0 C3.29714793 0.32971479 4.6226839 0.6226839 7 3 C6.84006374 6.11875698 6.39386255 7.57800441 4.25 9.875 C1.40525065 11.29737468 -0.01616624 10.91172698 -3 10 C-3 9.01 -3 8.02 -3 7 C-3.99 6.67 -4.98 6.34 -6 6 C-5.01 6 -4.02 6 -3 6 C-2.87625 5.38125 -2.7525 4.7625 -2.625 4.125 C-2 2 -2 2 0 0 Z " fill="#E8E7E3" transform="translate(1190,1147)"/>
<path d="M0 0 C-0.71875 1.921875 -0.71875 1.921875 -2 4 C-8.19882559 6.52721351 -15.41654401 6.25213236 -22 6 C-21.34 5.67 -20.68 5.34 -20 5 C-20 4.34 -20 3.68 -20 3 C-20.66 2.67 -21.32 2.34 -22 2 C-19.08483516 1.46915208 -16.16839443 0.95000945 -13.25 0.4375 C-12.425 0.28603516 -11.6 0.13457031 -10.75 -0.02148438 C-9.95078125 -0.16005859 -9.1515625 -0.29863281 -8.328125 -0.44140625 C-7.5949707 -0.57232666 -6.86181641 -0.70324707 -6.10644531 -0.83813477 C-3.83766713 -1.01247412 -2.16221421 -0.66874807 0 0 Z " fill="#333230" transform="translate(888,1057)"/>
<path d="M0 0 C1.32 0 2.64 0 4 0 C2.32882196 5.89667697 0.5003376 11.74824045 -1.4375 17.5625 C-2.02337891 19.35880859 -2.02337891 19.35880859 -2.62109375 21.19140625 C-4 24 -4 24 -6.16015625 24.90234375 C-6.76730469 24.93457031 -7.37445313 24.96679688 -8 25 C-7.34 24.67 -6.68 24.34 -6 24 C-5.82658735 21.98841321 -5.65393672 19.9767588 -5.484375 17.96484375 C-4.47375353 11.77886233 -2.10203291 5.88724347 0 0 Z " fill="#3B3A36" transform="translate(478,1109)"/>
<path d="M0 0 C4.29 0 8.58 0 13 0 C13 0.99 13 1.98 13 3 C9.7 3 6.4 3 3 3 C2.67 4.98 2.34 6.96 2 9 C3.98 9 5.96 9 8 9 C8 9.66 8 10.32 8 11 C5.03 11.66 2.06 12.32 -1 13 C-0.67 8.71 -0.34 4.42 0 0 Z " fill="#2F2D2A" transform="translate(1241,1145)"/>
<path d="M0 0 C0.99 0 1.98 0 3 0 C3 8.25 3 16.5 3 25 C2.01 25 1.02 25 0 25 C0 16.75 0 8.5 0 0 Z " fill="#282825" transform="translate(433,1144)"/>
<path d="M0 0 C3.5 0.1875 3.5 0.1875 7 1 C9 4 9 4 9 7 C6 9 6 9 2.375 8.6875 C-1 8 -1 8 -2 7 C-2.1875 4.5625 -2.1875 4.5625 -2 2 C-1.34 1.34 -0.68 0.68 0 0 Z " fill="#F3F3EF" transform="translate(348,1146)"/>
<path d="M0 0 C0.99 0 1.98 0 3 0 C3 8.25 3 16.5 3 25 C2.01 25 1.02 25 0 25 C0 16.75 0 8.5 0 0 Z " fill="#232220" transform="translate(455,1109)"/>
<path d="M0 0 C0.99 0 1.98 0 3 0 C3 8.25 3 16.5 3 25 C2.01 25 1.02 25 0 25 C0 16.75 0 8.5 0 0 Z " fill="#262520" transform="translate(1181,1109)"/>
<path d="M0 0 C0 1.66666667 0 3.33333333 0 5 C-0.99 5.495 -0.99 5.495 -2 6 C-1.01 6.66 -0.02 7.32 1 8 C-8.24 8 -17.48 8 -27 8 C-27 7.67 -27 7.34 -27 7 C-25.55367187 6.94392578 -25.55367187 6.94392578 -24.078125 6.88671875 C-22.81484375 6.82097656 -21.5515625 6.75523437 -20.25 6.6875 C-18.99703125 6.62949219 -17.7440625 6.57148437 -16.453125 6.51171875 C-12.84277193 5.97670037 -11.70180019 5.28966117 -9 3 C-6.640625 2.05078125 -6.640625 2.05078125 -4.25 1.3125 C-3.45078125 1.06113281 -2.6515625 0.80976562 -1.828125 0.55078125 C-1.22484375 0.36902344 -0.6215625 0.18726563 0 0 Z " fill="#40403E" transform="translate(1107,891)"/>
<path d="M0 0 C0.99 0 1.98 0 3 0 C3.11638036 3.24969769 3.18730581 6.4988583 3.25 9.75 C3.30027344 11.13058594 3.30027344 11.13058594 3.3515625 12.5390625 C3.45112665 19.40898911 3.45112665 19.40898911 0.984375 22.640625 C0.00210937 23.31351563 0.00210937 23.31351563 -1 24 C-1.99 23.34 -2.98 22.68 -4 22 C-3.5155542 21.59676514 -3.0311084 21.19353027 -2.53198242 20.77807617 C-0.63082835 18.57152555 -0.5848884 17.42967446 -0.48828125 14.55078125 C-0.45283203 13.70322266 -0.41738281 12.85566406 -0.38085938 11.98242188 C-0.35830078 11.10134766 -0.33574219 10.22027344 -0.3125 9.3125 C-0.27833984 8.41982422 -0.24417969 7.52714844 -0.20898438 6.60742188 C-0.12654352 4.40507329 -0.05738449 2.20312062 0 0 Z " fill="#242320" transform="translate(401,1144)"/>
<path d="M0 0 C1.32 0.33 2.64 0.66 4 1 C4 1.99 4 2.98 4 4 C4.66 4.33 5.32 4.66 6 5 C5.67 5.66 5.34 6.32 5 7 C4.77532169 8.53668865 4.59203195 10.07968054 4.4375 11.625 C4.35371094 12.44226562 4.26992187 13.25953125 4.18359375 14.1015625 C4.12300781 14.72804688 4.06242187 15.35453125 4 16 C3.01 16 2.02 16 1 16 C1 18.97 1 21.94 1 25 C0.67 25 0.34 25 0 25 C0 16.75 0 8.5 0 0 Z " fill="#D3D4D0" transform="translate(1208,1109)"/>
<path d="M0 0 C0.66 0 1.32 0 2 0 C1.96519531 0.66386719 1.93039062 1.32773438 1.89453125 2.01171875 C1.77291765 5.97863841 1.72814512 9.23240974 3.0625 13 C5.72205998 15.74535223 8.31807781 16.23582747 12 17 C12 17.66 12 18.32 12 19 C5.19971316 19.82072427 5.19971316 19.82072427 2.1328125 17.72265625 C-0.79047532 14.63851766 -2.37081468 12.11598605 -2.5 7.8125 C-2.0808703 4.61663603 -1.76071707 2.6410756 0 0 Z " fill="#2E2C2A" transform="translate(442,1150)"/>
<path d="M0 0 C0.33 0 0.66 0 1 0 C1 3.63 1 7.26 1 11 C1.66 11 2.32 11 3 11 C3 7.7 3 4.4 3 1 C3.33 1 3.66 1 4 1 C4.06058594 1.84304688 4.12117188 2.68609375 4.18359375 3.5546875 C4.26738281 4.65039062 4.35117188 5.74609375 4.4375 6.875 C4.51871094 7.96554687 4.59992188 9.05609375 4.68359375 10.1796875 C4.83001703 12.94728971 4.83001703 12.94728971 6 15 C9.60992379 14.34414811 9.60992379 14.34414811 13 13 C13 13.66 13 14.32 13 15 C13.66 15.33 14.32 15.66 15 16 C12.15897122 18.08899175 10.50368637 18.98972069 6.9375 19.0625 C3.88028936 17.95670041 2.35417151 16.9138339 0.6796875 14.09765625 C-0.78777356 9.56876782 -0.27359053 4.69663739 0 0 Z " fill="#3E3D3A" transform="translate(1202,1151)"/>
<path d="M0 0 C2.375 1.5 2.375 1.5 4 3 C3.67 3.33 3.34 3.66 3 4 C3.66 4.66 4.32 5.32 5 6 C4.01 6 3.02 6 2 6 C1.67 5.67 1.34 5.34 1 5 C-1.03270562 4.76179079 -1.03270562 4.76179079 -3.375 4.75 C-4.16648437 4.72421875 -4.95796875 4.6984375 -5.7734375 4.671875 C-8.47024878 5.06929982 -9.30729015 5.92506535 -11 8 C-11.66 7.67 -12.32 7.34 -13 7 C-13.33 8.32 -13.66 9.64 -14 11 C-15 8 -15 8 -13.9375 5.5 C-10.29375956 0.79839944 -5.84794263 -0.76277513 0 0 Z " fill="#2A2826" transform="translate(455,1143)"/>
<path d="M0 0 C0.33 0.66 0.66 1.32 1 2 C1.66 2 2.32 2 3 2 C3 8.93 3 15.86 3 23 C1.66666667 23 0.33333333 23 -1 23 C-0.67 15.41 -0.34 7.82 0 0 Z " fill="#242320" transform="translate(975,934)"/>
<path d="M0 0 C5.94 0 11.88 0 18 0 C18 0.99 18 1.98 18 3 C13.05 3 8.1 3 3 3 C3 5.64 3 8.28 3 11 C2.01 10.34 1.02 9.68 0 9 C0 6.03 0 3.06 0 0 Z " fill="#2F2D29" transform="translate(1238,1109)"/>
<path d="M0 0 C2.5 1.6875 2.5 1.6875 4 4 C4.25 6.75 4.25 6.75 4 9 C3.67 7.68 3.34 6.36 3 5 C2.34 5 1.68 5 1 5 C0.67 6.32 0.34 7.64 0 9 C-0.66 7.02 -1.32 5.04 -2 3 C-3.98 3 -5.96 3 -8 3 C-8.33 4.65 -8.66 6.3 -9 8 C-9.99 8 -10.98 8 -12 8 C-11.6875 5.125 -11.6875 5.125 -11 2 C-7.31905504 -0.45396331 -4.27624235 -0.69693286 0 0 Z " fill="#302E2D" transform="translate(1233,1145)"/>
<path d="M0 0 C3.4375 0.9375 3.4375 0.9375 4.875 3 C5.1534375 3.9590625 5.1534375 3.9590625 5.4375 4.9375 C4.65375 5.06125 3.87 5.185 3.0625 5.3125 C0.29692178 5.72867993 0.29692178 5.72867993 -1.5625 7.9375 C-3.6875 7.5625 -3.6875 7.5625 -5.5625 6.9375 C-6.25 5.125 -6.25 5.125 -6.5625 2.9375 C-4.80508167 -0.24782073 -3.64433318 -0.06393567 0 0 Z " fill="#E6E4E0" transform="translate(1167.5625,1111.0625)"/>
<path d="M0 0 C0.33 0 0.66 0 1 0 C1.9767249 10.02887177 2.10849626 19.93395765 2 30 C1.67 30 1.34 30 1 30 C1 24.72 1 19.44 1 14 C-0.32 14 -1.64 14 -3 14 C-3.56359649 4.41885965 -3.56359649 4.41885965 0 0 Z " fill="#43423E" transform="translate(977,922)"/>
<path d="M0 0 C2.97 0.33 5.94 0.66 9 1 C8.25 5.75 8.25 5.75 6 8 C4.68 8 3.36 8 2 8 C2 7.34 2 6.68 2 6 C1.34 6 0.68 6 0 6 C0 4.02 0 2.04 0 0 Z " fill="#F4F2F0" transform="translate(1221,1123)"/>
<path d="M0 0 C0.99 0 1.98 0 3 0 C3 0.66 3 1.32 3 2 C7.29 2 11.58 2 16 2 C16 2.99 16 3.98 16 5 C10.72 5 5.44 5 0 5 C0 3.35 0 1.7 0 0 Z " fill="#292825" transform="translate(1184,1164)"/>
<path d="M0 0 C0.66 0.33 1.32 0.66 2 1 C2.125 4.375 2.125 4.375 2 8 C0 10 0 10 -3 10.3125 C-3.99 10.209375 -4.98 10.10625 -6 10 C-6.66 9.01 -7.32 8.02 -8 7 C-5 5 -5 5 -2 5 C-1.34 3.35 -0.68 1.7 0 0 Z " fill="#E7E7E3" transform="translate(1250,1157)"/>
<path d="M0 0 C0 0.66 0 1.32 0 2 C-1.74692795 2.67467562 -3.49768525 3.33944156 -5.25 4 C-6.71179688 4.556875 -6.71179688 4.556875 -8.203125 5.125 C-11 6 -11 6 -15 6 C-14.01115296 3.43218752 -13.44413411 2.23750029 -10.9765625 0.91796875 C-10.20054687 0.67691406 -9.42453125 0.43585938 -8.625 0.1875 C-7.85414063 -0.06644531 -7.08328125 -0.32039063 -6.2890625 -0.58203125 C-3.82655314 -1.03167033 -2.35084396 -0.78898188 0 0 Z " fill="#2C2C28" transform="translate(901,1054)"/>
<path d="M0 0 C0.99 0.33 1.98 0.66 3 1 C3.24900646 2.93505023 3.47356242 4.87325934 3.6875 6.8125 C3.81511719 7.89144531 3.94273437 8.97039063 4.07421875 10.08203125 C4 13 4 13 2.51953125 14.88671875 C2.01808594 15.25410156 1.51664063 15.62148438 1 16 C-0.79281673 10.39744773 -1.92331002 5.76993005 0 0 Z " fill="#242421" transform="translate(973,911)"/>
<path d="M0 0 C0 1.65 0 3.3 0 5 C-0.99 5.33 -1.98 5.66 -3 6 C-3 6.99 -3 7.98 -3 9 C-4.65 9.33 -6.3 9.66 -8 10 C-8.66 9.01 -9.32 8.02 -10 7 C-9.01 6.67 -8.02 6.34 -7 6 C-7 6.66 -7 7.32 -7 8 C-6.01 8 -5.02 8 -4 8 C-4.495 7.236875 -4.99 6.47375 -5.5 5.6875 C-7 3 -7 3 -7 0 C-3.98968256 -0.93423645 -3.13349732 -1.04449911 0 0 Z " fill="#E5E4E0" transform="translate(1237,1108)"/>
<path d="M0 0 C0.66 0.33 1.32 0.66 2 1 C0.91239459 6.70992843 -1.77513112 8.74430808 -6.3203125 11.8984375 C-7.15175781 12.44371094 -7.15175781 12.44371094 -8 13 C-8 12.01 -8 11.02 -8 10 C-7.34 10 -6.68 10 -6 10 C-6.33 8.02 -6.66 6.04 -7 4 C-4.69 3.34 -2.38 2.68 0 2 C0 1.34 0 0.68 0 0 Z " fill="#31322F" transform="translate(666,793)"/>
<path d="M0 0 C2.76544722 3.45680903 4.84921278 7.14341602 7 11 C6.34 11 5.68 11 5 11 C5 11.66 5 12.32 5 13 C3.35 13.33 1.7 13.66 0 14 C-0.33 12.02 -0.66 10.04 -1 8 C-0.34 8 0.32 8 1 8 C0.42655063 5.13275314 0.1385485 4.1385485 -2 2 C-1.34 2 -0.68 2 0 2 C0 1.34 0 0.68 0 0 Z " fill="#2F2E2C" transform="translate(855,550)"/>
<path d="M0 0 C7.20759389 -0.61081304 7.20759389 -0.61081304 11 2.3125 C13 5 13 5 13 8 C12.01 8 11.02 8 10 8 C9.38125 7.0409375 9.38125 7.0409375 8.75 6.0625 C7.03600693 3.61163131 7.03600693 3.61163131 3.3125 3.25 C2.219375 3.1675 1.12625 3.085 0 3 C0 2.01 0 1.02 0 0 Z " fill="#403E3A" transform="translate(350,1109)"/>
<path d="M0 0 C8.10680787 0.34644478 8.10680787 0.34644478 11.5625 2.875 C13 5 13 5 13 8 C12.01 8 11.02 8 10 8 C9.34 7.01 8.68 6.02 8 5 C4.43230448 4.26393501 4.43230448 4.26393501 1 4 C0.67 2.68 0.34 1.36 0 0 Z " fill="#4F4D49" transform="translate(1220,1108)"/>
<path d="M0 0 C1.48831242 0.00667405 2.97660807 0.01863442 4.46484375 0.03515625 C5.22345703 0.03966797 5.98207031 0.04417969 6.76367188 0.04882812 C8.64326246 0.06064945 10.52281274 0.07858547 12.40234375 0.09765625 C12.40234375 1.08765625 12.40234375 2.07765625 12.40234375 3.09765625 C9.94371974 3.15149473 7.48626825 3.19124663 5.02734375 3.22265625 C3.97933594 3.24779297 3.97933594 3.24779297 2.91015625 3.2734375 C1.07336889 3.29109892 -0.76367588 3.20068886 -2.59765625 3.09765625 C-3.25765625 2.43765625 -3.91765625 1.77765625 -4.59765625 1.09765625 C-3.59765625 0.09765625 -3.59765625 0.09765625 0 0 Z " fill="#22221E" transform="translate(490.59765625,1108.90234375)"/>
<path d="M0 0 C2 2 2 2 2.25 5.375 C2.02515633 8.63523324 1.7239511 10.30632641 0 13 C-0.99 13 -1.98 13 -3 13 C-2.88610125 11.20759337 -2.75852313 9.41605165 -2.625 7.625 C-2.55539062 6.62726562 -2.48578125 5.62953125 -2.4140625 4.6015625 C-2 2 -2 2 0 0 Z " fill="#312F2B" transform="translate(975,956)"/>
<path d="M0 0 C0.66 0.33 1.32 0.66 2 1 C2 1.66 2 2.32 2 3 C5.3 3.33 8.6 3.66 12 4 C12 4.33 12 4.66 12 5 C8.7 5.33 5.4 5.66 2 6 C1.34 7.98 0.68 9.96 0 12 C-1.32 12 -2.64 12 -4 12 C-2.66666667 8 -1.33333333 4 0 0 Z " fill="#42403E" transform="translate(414,1122)"/>
<path d="M0 0 C0.66 0 1.32 0 2 0 C2.99 3.3 3.98 6.6 5 10 C2.36 10 -0.28 10 -3 10 C-2.01 6.7 -1.02 3.4 0 0 Z " fill="#DBD9D7" transform="translate(420,1114)"/>
<path d="M0 0 C1.32 0 2.64 0 4 0 C5.625 2.4375 5.625 2.4375 7 5 C7.66 5.33 8.32 5.66 9 6 C9 6.66 9 7.32 9 8 C10.65 8 12.3 8 14 8 C14 8.33 14 8.66 14 9 C6.8444694 9.48512072 6.8444694 9.48512072 3.0625 7.3125 C0.81096104 4.78804723 0.27746492 3.32957907 0 0 Z " fill="#4B4945" transform="translate(341,1161)"/>
<path d="M0 0 C-1.98 2.97 -3.96 5.94 -6 9 C-7.49403054 6.01193893 -8.79310745 3.10343799 -10 0 C-5.48095876 -2.32407835 -5.18825982 -2.07530393 0 0 Z " fill="#EDEBE8" transform="translate(776,947)"/>
<path d="M0 0 C4.12796115 0.2381516 6.34632633 0.39660892 9.4375 3.25 C11.10291199 6.1811251 11.37775893 7.6946094 11 11 C10.01 11 9.02 11 8 11 C7.71125 10.030625 7.4225 9.06125 7.125 8.0625 C6.35785318 4.89335797 6.35785318 4.89335797 4 4 C4 3.01 4 2.02 4 1 C2.68 0.67 1.36 0.34 0 0 Z " fill="#3E3D39" transform="translate(1245,1153)"/>
<path d="M0 0 C0.33 0.99 0.66 1.98 1 3 C2.485 3.4640625 2.485 3.4640625 4 3.9375 C4.99 4.288125 5.98 4.63875 7 5 C7.6875 7.06640625 7.6875 7.06640625 8 9 C6.20620902 8.55005243 4.41501072 8.08975857 2.625 7.625 C1.62726562 7.36976563 0.62953125 7.11453125 -0.3984375 6.8515625 C-3 6 -3 6 -5 4 C-3.35 2.68 -1.7 1.36 0 0 Z " fill="#E6E7E4" transform="translate(893,816)"/>
<path d="M0 0 C0.66 0 1.32 0 2 0 C2 8.58 2 17.16 2 26 C1.67 26 1.34 26 1 26 C1 18.74 1 11.48 1 4 C-0.32 5.32 -1.64 6.64 -3 8 C-1.125 1.125 -1.125 1.125 0 0 Z " fill="#D7D6D3" transform="translate(483,1108)"/>
<path d="M0 0 C4.29 0 8.58 0 13 0 C13 0.99 13 1.98 13 3 C8.38 3 3.76 3 -1 3 C-0.67 2.01 -0.34 1.02 0 0 Z " fill="#3E3C38" transform="translate(489,1120)"/>
<path d="M0 0 C0.8353125 0.37125 0.8353125 0.37125 1.6875 0.75 C-2.61386986 6.58757339 -2.61386986 6.58757339 -6.3125 7.75 C-8.64453812 7.8277346 -10.98089059 7.83967728 -13.3125 7.75 C-13.3125 7.42 -13.3125 7.09 -13.3125 6.75 C-11.3325 6.75 -9.3525 6.75 -7.3125 6.75 C-7.3125 5.76 -7.3125 4.77 -7.3125 3.75 C-3.21493902 -0.34756098 -3.21493902 -0.34756098 0 0 Z " fill="#444240" transform="translate(461.3125,1162.25)"/>
<path d="M0 0 C2.8203125 -0.29296875 2.8203125 -0.29296875 6.125 -0.1875 C7.76855469 -0.14689453 7.76855469 -0.14689453 9.4453125 -0.10546875 C10.28835938 -0.07066406 11.13140625 -0.03585937 12 0 C12 0.99 12 1.98 12 3 C7.38 3 2.76 3 -2 3 C-1.34 2.01 -0.68 1.02 0 0 Z " fill="#262421" transform="translate(1244,1131)"/>
<path d="M0 0 C0.66 0 1.32 0 2 0 C2 0.66 2 1.32 2 2 C3.32 2.33 4.64 2.66 6 3 C4.92598892 5.91517292 4.22189824 7.77810176 2 10 C1.34 9.34 0.68 8.68 0 8 C-0.33 8 -0.66 8 -1 8 C-1.08226668 4.95613276 -0.97608217 2.92824652 0 0 Z " fill="#292A28" transform="translate(1219,817)"/>
<path d="M0 0 C0.66 0.33 1.32 0.66 2 1 C-0.0424185 3.96150682 -2.0550059 5.94742836 -5 8 C-5.7425 8.556875 -6.485 9.11375 -7.25 9.6875 C-7.8275 10.120625 -8.405 10.55375 -9 11 C-9.66 10.67 -10.32 10.34 -11 10 C-9.54144353 6.31353859 -7.69770955 4.83856029 -4.375 2.75 C-3.55773438 2.22921875 -2.74046875 1.7084375 -1.8984375 1.171875 C-1.27195312 0.78515625 -0.64546875 0.3984375 0 0 Z " fill="#3B3A37" transform="translate(1196,1154)"/>
<path d="M0 0 C3.375 -0.125 3.375 -0.125 7 0 C7.66 0.66 8.32 1.32 9 2 C8.625 4.625 8.625 4.625 8 7 C4.2047869 5.50902342 2.38957269 3.24299151 0 0 Z " fill="#E4E4E1" transform="translate(902,593)"/>
<path d="M0 0 C1.32 0 2.64 0 4 0 C4.66 2.97 5.32 5.94 6 9 C5.01 9.33 4.02 9.66 3 10 C0 3.375 0 3.375 0 0 Z " fill="#353330" transform="translate(461,1109)"/>
<path d="M0 0 C0.99 0.33 1.98 0.66 3 1 C1.55922954 4.36179774 -0.24750021 6.59156268 -3 9 C-3.66 9 -4.32 9 -5 9 C-4.5206753 4.68607774 -3.2542015 2.83430453 0 0 Z " fill="#262321" transform="translate(943,1023)"/>
<path d="M0 0 C0.33 0 0.66 0 1 0 C1 3.63 1 7.26 1 11 C1.66 11 2.32 11 3 11 C3 7.7 3 4.4 3 1 C3.33 1 3.66 1 4 1 C4.33 5.29 4.66 9.58 5 14 C4.34 14 3.68 14 3 14 C2.67 14.66 2.34 15.32 2 16 C-0.14336161 12.5233662 -0.21277626 9.78770805 -0.125 5.75 C-0.10695313 4.67234375 -0.08890625 3.5946875 -0.0703125 2.484375 C-0.04710937 1.66453125 -0.02390625 0.8446875 0 0 Z " fill="#5F5E5C" transform="translate(1202,1151)"/>
<path d="M0 0 C0 1.65 0 3.3 0 5 C0.66 5 1.32 5 2 5 C2 5.66 2 6.32 2 7 C2.99 7.33 3.98 7.66 5 8 C-1.44807122 7.39169139 -1.44807122 7.39169139 -3.9375 5.625 C-5 4 -5 4 -5 1 C-2 0 -2 0 0 0 Z " fill="#E2E0DF" transform="translate(1221,1124)"/>
<path d="M0 0 C3.3125 -0.3125 3.3125 -0.3125 7 0 C9.38164192 2.84260487 10 4.28405267 10 8 C8.51714758 7.04737966 7.03881799 6.08771595 5.5625 5.125 C4.73878906 4.59132813 3.91507813 4.05765625 3.06640625 3.5078125 C1 2 1 2 0 0 Z " fill="#2F2D2B" transform="translate(690,817)"/>
<path d="M0 0 C0.33 0.66 0.66 1.32 1 2 C0.71125 2.556875 0.4225 3.11375 0.125 3.6875 C-1.35485704 6.72942835 -1.61470012 9.66073437 -2 13 C-5 12 -5 12 -7 10 C-3.535 5.05 -3.535 5.05 0 0 Z " fill="#2C2C29" transform="translate(664,609)"/>
<path d="M0 0 C0 0.33 0 0.66 0 1 C-5.10334017 2.905247 -9.46342706 4.42589023 -15 4 C-15.33 3.34 -15.66 2.68 -16 2 C-10.60539047 -0.27141454 -5.73842251 -0.20413361 0 0 Z " fill="#DEDDD9" transform="translate(1098,553)"/>
<path d="M0 0 C0.66 0 1.32 0 2 0 C2.3125 2.75 2.3125 2.75 2 6 C-0.600965 8.600965 -2.51113321 9.8370444 -6 11 C-5.75 9.1875 -5.75 9.1875 -5 7 C-3.66666667 6 -2.33333333 5 -1 4 C-0.20376178 1.90584196 -0.20376178 1.90584196 0 0 Z " fill="#292824" transform="translate(1234,1150)"/>
<path d="M0 0 C5.41538462 -0.36923077 5.41538462 -0.36923077 8.375 1.5 C8.91125 1.995 9.4475 2.49 10 3 C9.67 3.33 9.34 3.66 9 4 C9.66 4.66 10.32 5.32 11 6 C10.01 6 9.02 6 8 6 C7.67 5.67 7.34 5.34 7 5 C4.67182036 4.63239269 2.3381615 4.29758419 0 4 C0.99 3.67 1.98 3.34 3 3 C3 2.34 3 1.68 3 1 C2.01 0.67 1.02 0.34 0 0 Z " fill="#53514F" transform="translate(449,1143)"/>
<path d="M0 0 C1.32 0.33 2.64 0.66 4 1 C2.31326082 5.49797113 0.18326108 9.72886302 -2 14 C-3.25127906 10.45332822 -2.72285053 8.27746562 -1.5625 4.75 C-1.27503906 3.85796875 -0.98757813 2.9659375 -0.69140625 2.046875 C-0.46324219 1.37140625 -0.23507812 0.6959375 0 0 Z " fill="#3A3936" transform="translate(764,965)"/>
<path d="M0 0 C3.63 0.66 7.26 1.32 11 2 C11 2.66 11 3.32 11 4 C9.54364629 4.22174933 8.08477044 4.42698698 6.625 4.625 C5.81289063 4.74101563 5.00078125 4.85703125 4.1640625 4.9765625 C3.44992187 4.98429687 2.73578125 4.99203125 2 5 C1.34 4.34 0.68 3.68 0 3 C0 2.01 0 1.02 0 0 Z " fill="#3E3C39" transform="translate(389,1165)"/>
<path d="M0 0 C0.66 0 1.32 0 2 0 C1.67 4.62 1.34 9.24 1 14 C0.34 14 -0.32 14 -1 14 C-1.02685938 11.85423363 -1.04633088 9.70837355 -1.0625 7.5625 C-1.07410156 6.36753906 -1.08570313 5.17257812 -1.09765625 3.94140625 C-1 1 -1 1 0 0 Z " fill="#262523" transform="translate(1204,1148)"/>
<path d="M0 0 C0.66 0.33 1.32 0.66 2 1 C2 1.66 2 2.32 2 3 C-2.25566547 4.16063604 -5.6835078 3.76173392 -10 3 C-6.68587278 -0.05919435 -4.45155852 -0.38709205 0 0 Z " fill="#21201E" transform="translate(866,1059)"/>
<path d="M0 0 C3.68754757 0.49831724 5.60490662 1.10067643 8 4 C7.34 4 6.68 4 6 4 C5.67 4.66 5.34 5.32 5 6 C4.34 5.34 3.68 4.68 3 4 C0.56747339 3.53837573 0.56747339 3.53837573 -2.125 3.375 C-3.03507812 3.30023437 -3.94515625 3.22546875 -4.8828125 3.1484375 C-5.58148438 3.09945313 -6.28015625 3.05046875 -7 3 C-7 2.67 -7 2.34 -7 2 C-4.69 2 -2.38 2 0 2 C0 1.34 0 0.68 0 0 Z " fill="#34322F" transform="translate(419,1144)"/>
<path d="M0 0 C0.99 0.33 1.98 0.66 3 1 C3 2.98 3 4.96 3 7 C1.35 7.33 -0.3 7.66 -2 8 C-1.125 1.125 -1.125 1.125 0 0 Z " fill="#3D3C3A" transform="translate(1174,1123)"/>
<path d="M0 0 C0.33 0 0.66 0 1 0 C0.14285714 8.57142857 0.14285714 8.57142857 -2 12 C-2.99 11.67 -3.98 11.34 -5 11 C-4.34 11 -3.68 11 -3 11 C-2.95101563 10.37351562 -2.90203125 9.74703125 -2.8515625 9.1015625 C-2.73941406 7.87566406 -2.73941406 7.87566406 -2.625 6.625 C-2.55539062 5.81289062 -2.48578125 5.00078125 -2.4140625 4.1640625 C-2 2 -2 2 0 0 Z " fill="#2E2C28" transform="translate(475,1122)"/>
<path d="M0 0 C2.25 0.25 2.25 0.25 4 1 C2.63016497 4.16115776 2.0109362 4.9927092 -1 7 C-1.99 6.01 -2.98 5.02 -4 4 C-2.25 1.9375 -2.25 1.9375 0 0 Z " fill="#363431" transform="translate(947,1018)"/>
<path d="M0 0 C0.66 0.66 1.32 1.32 2 2 C1.34 2 0.68 2 0 2 C0 1.34 0 0.68 0 0 Z M-4 1 C-2.02 1.66 -0.04 2.32 2 3 C2 3.66 2 4.32 2 5 C0.02 5.99 -1.96 6.98 -4 8 C-4.38133299 6.0085944 -4.71325582 4.00720923 -5 2 C-4.67 1.67 -4.34 1.34 -4 1 Z " fill="#2A2A28" transform="translate(582,872)"/>
<path d="M0 0 C0.33 0.66 0.66 1.32 1 2 C0.34 2.66 -0.32 3.32 -1 4 C-1.9590625 3.7525 -1.9590625 3.7525 -2.9375 3.5 C-3.618125 3.335 -4.29875 3.17 -5 3 C-5.99 3.66 -6.98 4.32 -8 5 C-8 4.34 -8 3.68 -8 3 C-8.66 2.67 -9.32 2.34 -10 2 C-6.3558226 -0.4294516 -4.28758728 -0.16179575 0 0 Z " fill="#353332" transform="translate(1214,1145)"/>
<path d="M0 0 C1.9451 2.91765 2.45276317 4.62537285 3 8 C1.68 8 0.36 8 -1 8 C-1.66 5.69 -2.32 3.38 -3 1 C-2.01 0.67 -1.02 0.34 0 0 Z " fill="#3E3F3C" transform="translate(429,1126)"/>
<path d="M0 0 C0.99 0.33 1.98 0.66 3 1 C3.33 3.64 3.66 6.28 4 9 C2.68 9 1.36 9 0 9 C0 6.03 0 3.06 0 0 Z " fill="#292724" transform="translate(383,1125)"/>
<path d="M0 0 C0.33 0.66 0.66 1.32 1 2 C1.66 2 2.32 2 3 2 C3.33 5.3 3.66 8.6 4 12 C3.67 11.01 3.34 10.02 3 9 C2.01 8.67 1.02 8.34 0 8 C0 5.36 0 2.72 0 0 Z " fill="#262422" transform="translate(1212,1118)"/>
<path d="M0 0 C2.4375 0.6875 2.4375 0.6875 5 2 C5.8125 4.625 5.8125 4.625 6 7 C3 7 3 7 0.8125 5 C0.214375 4.34 -0.38375 3.68 -1 3 C-0.67 2.01 -0.34 1.02 0 0 Z " fill="#31302C" transform="translate(1170,1109)"/>
<path d="M0 0 C-0.66 1.32 -1.32 2.64 -2 4 C-4.97 3.505 -4.97 3.505 -8 3 C-8.33 2.01 -8.66 1.02 -9 0 C-5.62182575 -0.84454356 -3.32534757 -1.10844919 0 0 Z " fill="#3F403B" transform="translate(888,1057)"/>
<path d="M0 0 C0.99 0 1.98 0 3 0 C3.66 0.99 4.32 1.98 5 3 C7.05925139 3.72382467 7.05925139 3.72382467 9 4 C9 4.66 9 5.32 9 6 C6.1875 6.25 6.1875 6.25 3 6 C1.125 4.125 1.125 4.125 0 2 C0 1.34 0 0.68 0 0 Z " fill="#292725" transform="translate(1239,1163)"/>
<path d="M0 0 C1.98 0.99 1.98 0.99 4 2 C3.34 6.29 2.68 10.58 2 15 C1.67 15 1.34 15 1 15 C0.67 10.05 0.34 5.1 0 0 Z " fill="#484644" transform="translate(1214,1147)"/>
<path d="M0 0 C0.99 0 1.98 0 3 0 C3.33 1.32 3.66 2.64 4 4 C2.35 5.32 0.7 6.64 -1 8 C-1.33 6.35 -1.66 4.7 -2 3 C-1.34 3 -0.68 3 0 3 C0 2.01 0 1.02 0 0 Z " fill="#EDECE8" transform="translate(994,581)"/>
<path d="M0 0 C0 0.99 0 1.98 0 3 C-2.94226752 5.6153489 -6.96883555 9 -11 9 C-11 8.34 -11 7.68 -11 7 C-9.21601386 5.71993203 -7.37146094 4.52339649 -5.5 3.375 C-3.96859375 2.42753906 -3.96859375 2.42753906 -2.40625 1.4609375 C-1.6121875 0.97882812 -0.818125 0.49671875 0 0 Z " fill="#2D2E2C" transform="translate(1021,568)"/>
<path d="M0 0 C3.3 0 6.6 0 10 0 C10 1.65 10 3.3 10 5 C8.35 5.33 6.7 5.66 5 6 C5.33 4.68 5.66 3.36 6 2 C3.03 1.505 3.03 1.505 0 1 C0 0.67 0 0.34 0 0 Z " fill="#3C3A39" transform="translate(490,549)"/>
<path d="M0 0 C0.78375 0.04125 1.5675 0.0825 2.375 0.125 C1.385 0.785 0.395 1.445 -0.625 2.125 C-1.35843428 5.19056598 -1.35843428 5.19056598 -1.625 8.125 C-2.615 7.795 -3.605 7.465 -4.625 7.125 C-4.75 4.75 -4.75 4.75 -4.625 2.125 C-2.625 0.125 -2.625 0.125 0 0 Z " fill="#DDDED9" transform="translate(350.625,1145.875)"/>
<path d="M0 0 C1.32 0 2.64 0 4 0 C4 1.65 4 3.3 4 5 C2.35 5.33 0.7 5.66 -1 6 C-1.33 5.01 -1.66 4.02 -2 3 C-1.34 2.67 -0.68 2.34 0 2 C0 1.34 0 0.68 0 0 Z " fill="#F4F3F0" transform="translate(1169,1125)"/>
<path d="M0 0 C0 0.66 0 1.32 0 2 C-3.66305234 2.74926071 -6.42355152 3.2380014 -10 2 C-6.80505194 -1.19494806 -4.22040044 -1.35655728 0 0 Z " fill="#262421" transform="translate(901,1054)"/>
<path d="M0 0 C-0.99 1.485 -0.99 1.485 -2 3 C-3.9453125 3.29296875 -3.9453125 3.29296875 -6.125 3.1875 C-7.40375 3.125625 -8.6825 3.06375 -10 3 C-10 2.34 -10 1.68 -10 1 C-6.78548731 -0.60725635 -3.56387464 -0.05748185 0 0 Z " fill="#21221F" transform="translate(1096,895)"/>
<path d="M0 0 C0.99 0 1.98 0 3 0 C3 0.66 3 1.32 3 2 C3.66 2.66 4.32 3.32 5 4 C4.34 4 3.68 4 3 4 C3.33 4.99 3.66 5.98 4 7 C2.35 7 0.7 7 -1 7 C-1 4.37886292 -0.68707555 2.49064888 0 0 Z " fill="#22201F" transform="translate(963,887)"/>
<path d="M0 0 C0.66 0.33 1.32 0.66 2 1 C2 1.66 2 2.32 2 3 C2.99 3.33 3.98 3.66 5 4 C1.25 7 1.25 7 -1 7 C-1.625 5.1875 -1.625 5.1875 -2 3 C-1.34 2.01 -0.68 1.02 0 0 Z " fill="#EDECE9" transform="translate(699,570)"/>
<path d="M0 0 C0.66 0 1.32 0 2 0 C1.67 2.97 1.34 5.94 1 9 C0.01 9.33 -0.98 9.66 -2 10 C-2.17942163 6.05272412 -2.09350689 3.4019487 0 0 Z " fill="#232321" transform="translate(442,1150)"/>
<path d="M0 0 C2.1385485 2.1385485 2.42655063 3.13275314 3 6 C1.1875 7.0625 1.1875 7.0625 -1 8 C-1.99 7.67 -2.98 7.34 -4 7 C-2.68 4.69 -1.36 2.38 0 0 Z " fill="#E9E7E6" transform="translate(644,758)"/>
<path d="M0 0 C0.99 0.66 1.98 1.32 3 2 C-2.75 6 -2.75 6 -5 6 C-5 5.34 -5 4.68 -5 4 C-5.66 3.67 -6.32 3.34 -7 3 C-3.6875 1.375 -3.6875 1.375 0 0 Z " fill="#292927" transform="translate(492,553)"/>
<path d="M0 0 C2 1.75 2 1.75 4 4 C4 5.32 4 6.64 4 8 C2.02 8.99 2.02 8.99 0 10 C-0.19412181 8.52168779 -0.38012131 7.04230684 -0.5625 5.5625 C-0.66691406 4.73878906 -0.77132813 3.91507813 -0.87890625 3.06640625 C-0.91886719 2.38449219 -0.95882813 1.70257812 -1 1 C-0.67 0.67 -0.34 0.34 0 0 Z " fill="#DDDBD7" transform="translate(386,1110)"/>
<path d="M0 0 C1.32 0 2.64 0 4 0 C3.34 2.31 2.68 4.62 2 7 C1.01 6.67 0.02 6.34 -1 6 C-0.67 4.02 -0.34 2.04 0 0 Z " fill="#2D2D29" transform="translate(478,1109)"/>
<path d="M0 0 C2.9719385 1.12451727 5.33440687 2.22293791 8 4 C7.67 4.99 7.34 5.98 7 7 C3.535 5.02 3.535 5.02 0 3 C0 2.01 0 1.02 0 0 Z " fill="#2D2D2A" transform="translate(837,936)"/>
<path d="M0 0 C2.625 0.375 2.625 0.375 5 1 C5 1.66 5 2.32 5 3 C-1.625 6.125 -1.625 6.125 -5 5 C-4.34 5 -3.68 5 -3 5 C-2.67 4.01 -2.34 3.02 -2 2 C-1.34 1.34 -0.68 0.68 0 0 Z " fill="#EAE9E7" transform="translate(597,840)"/>
<path d="M0 0 C0.66 0.33 1.32 0.66 2 1 C2 2.65 2 4.3 2 6 C-0.31 6.66 -2.62 7.32 -5 8 C-3.35 5.36 -1.7 2.72 0 0 Z " fill="#E5E3E1" transform="translate(364,1125)"/>
<path d="M0 0 C3.465 1.485 3.465 1.485 7 3 C6.67 3.99 6.34 4.98 6 6 C4.35 5.67 2.7 5.34 1 5 C0.67 3.35 0.34 1.7 0 0 Z " fill="#EDEEEB" transform="translate(804,1048)"/>
<path d="M0 0 C4.95 0 9.9 0 15 0 C15 0.33 15 0.66 15 1 C11.37 1 7.74 1 4 1 C4 1.66 4 2.32 4 3 C2.35 2.67 0.7 2.34 -1 2 C-0.67 1.34 -0.34 0.68 0 0 Z " fill="#E7E5E4" transform="translate(681,977)"/>
<path d="M0 0 C-2.64 1.98 -5.28 3.96 -8 6 C-8 4.02 -8 2.04 -8 0 C-4.71303767 -0.79953138 -3.28976808 -1.09658936 0 0 Z " fill="#2B2B29" transform="translate(834,874)"/>
<path d="M0 0 C0.433125 0.9590625 0.433125 0.9590625 0.875 1.9375 C1.82823451 4.15206079 1.82823451 4.15206079 4 5 C2.35 5.33 0.7 5.66 -1 6 C-1.33 6.99 -1.66 7.98 -2 9 C-2.33 8.34 -2.66 7.68 -3 7 C-2.06421005 4.64018187 -1.06652192 2.30368736 0 0 Z " fill="#373733" transform="translate(362,651)"/>
<path d="M0 0 C0 3 0 3 -1.5 4.6875 C-1.995 5.120625 -2.49 5.55375 -3 6 C-2.34 6.33 -1.68 6.66 -1 7 C-3.31 7 -5.62 7 -8 7 C-5.42215154 4.35247996 -3.08351902 2.05567935 0 0 Z " fill="#333431" transform="translate(701,575)"/>
<path d="M0 0 C0.66 0.66 1.32 1.32 2 2 C1.5359375 2.7425 1.5359375 2.7425 1.0625 3.5 C-0.41644382 6.97986781 -0.62402851 10.24028509 -1 14 C-1.33 14 -1.66 14 -2 14 C-3.28571429 5.42857143 -3.28571429 5.42857143 -2 2 C-1.34 2 -0.68 2 0 2 C0 1.34 0 0.68 0 0 Z " fill="#3A3938" transform="translate(855,530)"/>
<path d="M0 0 C3 4 3 4 3.375 6.5625 C3 9 3 9 0 12 C0 8.04 0 4.08 0 0 Z " fill="#DDDDDB" transform="translate(429,1153)"/>
<path d="M0 0 C1.32 1.32 2.64 2.64 4 4 C0.77208445 6.1519437 -0.28400809 6.20086443 -4 6 C-2.68 5.34 -1.36 4.68 0 4 C-0.33 3.01 -0.66 2.02 -1 1 C-0.67 0.67 -0.34 0.34 0 0 Z " fill="#D3D1CD" transform="translate(396,1161)"/>
<path d="M0 0 C0.66 0.33 1.32 0.66 2 1 C1.50168276 4.68754757 0.89932357 6.60490662 -2 9 C-2.99 8.67 -3.98 8.34 -5 8 C-4.0409375 7.13375 -4.0409375 7.13375 -3.0625 6.25 C-1.01776132 4.01937599 -0.41794801 2.92563609 0 0 Z " fill="#282622" transform="translate(1198,1150)"/>
<path d="M0 0 C1.9375 0.5625 1.9375 0.5625 4 2 C4.75 5.625 4.75 5.625 5 9 C4.67 7.68 4.34 6.36 4 5 C3.34 5 2.68 5 2 5 C1.67 6.32 1.34 7.64 1 9 C1.020625 8.071875 1.04125 7.14375 1.0625 6.1875 C1.15769604 2.97713989 1.15769604 2.97713989 0 0 Z " fill="#4E4C4A" transform="translate(1232,1145)"/>
<path d="M0 0 C2.31 0 4.62 0 7 0 C7 0.99 7 1.98 7 3 C4.36 3 1.72 3 -1 3 C-0.67 2.01 -0.34 1.02 0 0 Z " fill="#302F2D" transform="translate(376,1144)"/>
<path d="M0 0 C0.99 0 1.98 0 3 0 C2.75 2.375 2.75 2.375 2 5 C-0.0625 6.3125 -0.0625 6.3125 -2 7 C-1.125 2.25 -1.125 2.25 0 0 Z " fill="#2B2927" transform="translate(360,1125)"/>
<path d="M0 0 C0.99 0.33 1.98 0.66 3 1 C2.34 2.32 1.68 3.64 1 5 C-0.65 4.67 -2.3 4.34 -4 4 C-2.68 2.68 -1.36 1.36 0 0 Z " fill="#F3F2EE" transform="translate(1170,1115)"/>
<path d="M0 0 C0.66 0 1.32 0 2 0 C2.73080266 1.97746603 3.39421747 3.98072489 4 6 C3.67 6.66 3.34 7.32 3 8 C2.34 8 1.68 8 1 8 C0 1.125 0 1.125 0 0 Z " fill="#292927" transform="translate(860,959)"/>
<path d="M0 0 C1.67542976 0.28604898 3.34385343 0.61781233 5 1 C2.64722731 3.72426311 0.37503669 4.8141763 -3 6 C-1.125 1.125 -1.125 1.125 0 0 Z " fill="#E8E8E7" transform="translate(764,851)"/>
<path d="M0 0 C0.66 0.33 1.32 0.66 2 1 C1.79375 1.598125 1.5875 2.19625 1.375 2.8125 C0.69328085 5.28450846 0.69328085 5.28450846 3 8 C1.35 8.33 -0.3 8.66 -2 9 C-1.34 6.03 -0.68 3.06 0 0 Z " fill="#DBDCD7" transform="translate(1244,775)"/>
<path d="M0 0 C1.25541557 3.76624671 0.37061958 5.37188934 -1 9 C-2.32 8.67 -3.64 8.34 -5 8 C-3.35 5.36 -1.7 2.72 0 0 Z " fill="#383636" transform="translate(655,622)"/>
<path d="M0 0 C0.66 0 1.32 0 2 0 C2 0.66 2 1.32 2 2 C2.99 2 3.98 2 5 2 C5.625 3.875 5.625 3.875 6 6 C5.34 6.66 4.68 7.32 4 8 C0 2.25 0 2.25 0 0 Z " fill="#2D2B29" transform="translate(825,524)"/>
<path d="M0 0 C0.99 0.66 1.98 1.32 3 2 C2.67 3.98 2.34 5.96 2 8 C1.34 7.01 0.68 6.02 0 5 C-0.99 5.66 -1.98 6.32 -3 7 C-1.125 1.125 -1.125 1.125 0 0 Z " fill="#2E2C2B" transform="translate(812,439)"/>
<path d="M0 0 C1.9375 0.75 1.9375 0.75 4 2 C4.75 4.125 4.75 4.125 5 6 C3.125 5.6875 3.125 5.6875 1 5 C0.34 4.01 -0.32 3.02 -1 2 C-0.67 1.34 -0.34 0.68 0 0 Z " fill="#393A36" transform="translate(1195,1145)"/>
<path d="M0 0 C0.99 0.33 1.98 0.66 3 1 C2.67 1.99 2.34 2.98 2 4 C2.33 4.66 2.66 5.32 3 6 C1.02 6.33 -0.96 6.66 -3 7 C-2.34 6.67 -1.68 6.34 -1 6 C-1.0309375 4.7934375 -1.0309375 4.7934375 -1.0625 3.5625 C-1 1 -1 1 0 0 Z " fill="#EAE9E7" transform="translate(354,1148)"/>
<path d="M0 0 C1.9375 0.75 1.9375 0.75 4 2 C4.75 4.125 4.75 4.125 5 6 C4.01 6 3.02 6 2 6 C0.3125 3.5 0.3125 3.5 -1 1 C-0.67 0.67 -0.34 0.34 0 0 Z " fill="#292723" transform="translate(1228,1110)"/>
<path d="M0 0 C0.33 0.99 0.66 1.98 1 3 C-3.75 5 -3.75 5 -6 5 C-3.74193548 0 -3.74193548 0 0 0 Z " fill="#393834" transform="translate(1220,1109)"/>
<path d="M0 0 C2 3 2 3 3 6 C2.01 7.485 2.01 7.485 1 9 C0.34 8.67 -0.32 8.34 -1 8 C-1.04241723 5.66705225 -1.04092937 3.33297433 -1 1 C-0.67 0.67 -0.34 0.34 0 0 Z " fill="#2E2C2B" transform="translate(634,632)"/>
<path d="M0 0 C0.66 1.32 1.32 2.64 2 4 C0.35 5.98 -1.3 7.96 -3 10 C-3.33 9.34 -3.66 8.68 -4 8 C-3.22265625 6.0546875 -3.22265625 6.0546875 -2.0625 3.875 C-1.49208984 2.78832031 -1.49208984 2.78832031 -0.91015625 1.6796875 C-0.60980469 1.12539063 -0.30945313 0.57109375 0 0 Z " fill="#D7D8D5" transform="translate(757,575)"/>
<path d="M0 0 C1.4606285 2.64738916 2 3.89448334 2 7 C0 6 -2 5 -4 4 C-2.68 2.68 -1.36 1.36 0 0 Z " fill="#D9D8D5" transform="translate(768,561)"/>
<path d="M0 0 C0.99 0.33 1.98 0.66 3 1 C2.34 2.65 1.68 4.3 1 6 C-0.32 5.34 -1.64 4.68 -3 4 C-2.01 2.68 -1.02 1.36 0 0 Z " fill="#333431" transform="translate(425,1161)"/>
<path d="M0 0 C0.99 0.99 1.98 1.98 3 3 C2.34 3.66 1.68 4.32 1 5 C0.34 4.67 -0.32 4.34 -1 4 C-1.33 5.32 -1.66 6.64 -2 8 C-2.33 7.01 -2.66 6.02 -3 5 C-1.5625 2.3125 -1.5625 2.3125 0 0 Z " fill="#3E3C3B" transform="translate(443,1146)"/>
<path d="M0 0 C0.33 0 0.66 0 1 0 C1 2.64 1 5.28 1 8 C1.99 8.33 2.98 8.66 4 9 C3.34 9.66 2.68 10.32 2 11 C-0.125 10.625 -0.125 10.625 -2 10 C-1.34 10 -0.68 10 0 10 C0 6.7 0 3.4 0 0 Z " fill="#3D3D3B" transform="translate(1240,1123)"/>
<path d="M0 0 C0.99 0.495 0.99 0.495 2 1 C2.66719444 4.06909445 3 6.85786017 3 10 C2.01 9.34 1.02 8.68 0 8 C-0.40843923 5.28796348 -0.13336867 2.7562858 0 0 Z " fill="#24221F" transform="translate(342,1120)"/>
<path d="M0 0 C0.66 1.32 1.32 2.64 2 4 C-0.64 4.33 -3.28 4.66 -6 5 C-4.6875 3.5 -4.6875 3.5 -3 2 C-2.01 2 -1.02 2 0 2 C0 1.34 0 0.68 0 0 Z " fill="#EDEBE8" transform="translate(722,872)"/>
<path d="M0 0 C1.32 0.33 2.64 0.66 4 1 C4.33 2.65 4.66 4.3 5 6 C3.0625 5.25 3.0625 5.25 1 4 C0.25 1.875 0.25 1.875 0 0 Z " fill="#2B2927" transform="translate(385,1162)"/>
<path d="M0 0 C-1.125 1.5 -1.125 1.5 -3 3 C-6.1875 3.1875 -6.1875 3.1875 -9 3 C-7.14340032 -0.71319936 -3.69365381 -0.09982848 0 0 Z " fill="#25231F" transform="translate(1175,1131)"/>
<path d="M0 0 C0.66 0 1.32 0 2 0 C2.36923077 5.53846154 2.36923077 5.53846154 0.5 7.875 C-0.2425 8.431875 -0.2425 8.431875 -1 9 C-1.07427838 5.65747276 -1.06546953 3.1964086 0 0 Z " fill="#232321" transform="translate(973,911)"/>
<path d="M0 0 C0 3.20395416 -0.74335022 5.09399739 -2 8 C-2.99 7.67 -3.98 7.34 -5 7 C-3.70700306 4.11562221 -2.34058637 2.12780579 0 0 Z " fill="#EAEAE7" transform="translate(902,808)"/>
<path d="M0 0 C2.0625 0.4375 2.0625 0.4375 4 1 C3.01 2.98 2.02 4.96 1 7 C0.34 7 -0.32 7 -1 7 C-1.04254356 5.00045254 -1.04080783 2.99958364 -1 1 C-0.67 0.67 -0.34 0.34 0 0 Z " fill="#2F2E2A" transform="translate(650,810)"/>
<path d="M0 0 C0.33 0 0.66 0 1 0 C1.25 2.25 1.25 2.25 1 5 C-0.875 7.3125 -0.875 7.3125 -3 9 C-3.66 9 -4.32 9 -5 9 C-3.50164236 5.88802644 -1.86022073 2.91164984 0 0 Z " fill="#DFE0DD" transform="translate(922,784)"/>
<path d="M0 0 C0.99 0.33 1.98 0.66 3 1 C2.5359375 1.7734375 2.5359375 1.7734375 2.0625 2.5625 C0.70940713 5.66665423 0.38640576 8.65115007 0 12 C-0.33 12 -0.66 12 -1 12 C-1.14285714 3.42857143 -1.14285714 3.42857143 0 0 Z " fill="#C8C7C5" transform="translate(1043,648)"/>
<path d="M0 0 C0.99 0 1.98 0 3 0 C3 0.99 3 1.98 3 3 C3.66 3 4.32 3 5 3 C4.67 3.99 4.34 4.98 4 6 C2.35 4.35 0.7 2.7 -1 1 C-0.67 0.67 -0.34 0.34 0 0 Z " fill="#E8E6E4" transform="translate(1188,581)"/>
<path d="M0 0 C2.97 0.495 2.97 0.495 6 1 C5.67 2.65 5.34 4.3 5 6 C4.01 5.67 3.02 5.34 2 5 C0.8125 2.4375 0.8125 2.4375 0 0 Z " fill="#E6E4E3" transform="translate(1216,1147)"/>
<path d="M0 0 C1.32 0.33 2.64 0.66 4 1 C3.67 2.98 3.34 4.96 3 7 C2.34 6.67 1.68 6.34 1 6 C0.375 2.9375 0.375 2.9375 0 0 Z " fill="#312F2E" transform="translate(422,1114)"/>
<path d="M0 0 C1.98 0 3.96 0 6 0 C6 0.99 6 1.98 6 3 C3.03 2.505 3.03 2.505 0 2 C0 1.34 0 0.68 0 0 Z " fill="#474541" transform="translate(1163,1108)"/>
<path d="M0 0 C2.97 0.495 2.97 0.495 6 1 C3.94766315 3.2477975 2.99332739 4.0022242 0 5 C0 3.35 0 1.7 0 0 Z " fill="#393735" transform="translate(921,1041)"/>
<path d="M0 0 C0.33 0 0.66 0 1 0 C1.33 2.64 1.66 5.28 2 8 C0.02 8.99 0.02 8.99 -2 10 C-1.34 6.7 -0.68 3.4 0 0 Z " fill="#343432" transform="translate(975,912)"/>
<path d="M0 0 C0 0.99 0 1.98 0 3 C-2.5 4.6875 -2.5 4.6875 -5 6 C-5.66 5.34 -6.32 4.68 -7 4 C-4.69 2.68 -2.38 1.36 0 0 Z " fill="#E5E6E3" transform="translate(582,877)"/>
<path d="M0 0 C-2.9465385 1.80066242 -5.88801935 3.50163895 -9 5 C-8 2 -8 2 -5.625 0.25 C-3 -1 -3 -1 0 0 Z " fill="#E3E3E1" transform="translate(1180,873)"/>
<path d="M0 0 C0.66 0.33 1.32 0.66 2 1 C0.25 4.875 0.25 4.875 -2 6 C-2 5.34 -2 4.68 -2 4 C-2.66 3.67 -3.32 3.34 -4 3 C-2 1 -2 1 0 0 Z " fill="#313130" transform="translate(1198,851)"/>
<path d="M0 0 C0.99 0.33 1.98 0.66 3 1 C3 1.66 3 2.32 3 3 C3.66 3 4.32 3 5 3 C4.67 3.66 4.34 4.32 4 5 C-0.455 4.01 -0.455 4.01 -5 3 C-5 2.67 -5 2.34 -5 2 C-3.35 1.67 -1.7 1.34 0 1 C0 0.67 0 0.34 0 0 Z " fill="#555454" transform="translate(765,848)"/>
<path d="M0 0 C1.65 1.65 3.3 3.3 5 5 C4.01 5.33 3.02 5.66 2 6 C1.01 5.34 0.02 4.68 -1 4 C-0.67 2.68 -0.34 1.36 0 0 Z " fill="#E1E0DE" transform="translate(659,785)"/>
<path d="M0 0 C-0.33 2.64 -0.66 5.28 -1 8 C-3 6 -3 6 -3.125 3.375 C-3.08375 2.59125 -3.0425 1.8075 -3 1 C-1 0 -1 0 0 0 Z " fill="#DFDFDE" transform="translate(946,658)"/>
<path d="M0 0 C0.99 0.495 0.99 0.495 2 1 C2 1.66 2 2.32 2 3 C2.639375 3.28875 3.27875 3.5775 3.9375 3.875 C6 5 6 5 7 7 C4.69 6.34 2.38 5.68 0 5 C0 3.35 0 1.7 0 0 Z " fill="#CAC9C9" transform="translate(849,555)"/>
</svg>
